<mxfile host="app.diagrams.net" agent="Mozilla/5.0 (Windows NT 10.0; Win64; x64) AppleWebKit/537.36 (KHTML, like Gecko) Chrome/122.0.0.0 Safari/537.36" version="26.0.11" pages="2">
  <diagram name="第 1 页" id="e7kwiER3BSckb6LP3rxi">
    <mxGraphModel dx="1434" dy="746" grid="1" gridSize="10" guides="1" tooltips="1" connect="1" arrows="1" fold="1" page="1" pageScale="1" pageWidth="827" pageHeight="1169" background="#ffffff" math="0" shadow="0">
      <root>
        <mxCell id="0" />
        <mxCell id="1" parent="0" />
        <mxCell id="nVbXTicEFVuqo1gQbMPG-2" value="云桌面" style="swimlane;whiteSpace=wrap;html=1;startSize=23;fillColor=#b1ddf0;strokeColor=#10739e;labelBorderColor=none;fontSize=15;" parent="1" vertex="1">
          <mxGeometry y="240" width="760" height="500" as="geometry" />
        </mxCell>
        <mxCell id="nVbXTicEFVuqo1gQbMPG-8" value="原桌面登录的企微" style="swimlane;whiteSpace=wrap;html=1;fillColor=#d5e8d4;strokeColor=#82b366;" parent="nVbXTicEFVuqo1gQbMPG-2" vertex="1">
          <mxGeometry x="60" y="150" width="200" height="200" as="geometry" />
        </mxCell>
        <mxCell id="nVbXTicEFVuqo1gQbMPG-5" value="企微A" style="sketch=0;outlineConnect=0;fontColor=#232F3E;gradientColor=none;strokeColor=#232F3E;fillColor=#ffffff;dashed=0;verticalLabelPosition=bottom;verticalAlign=top;align=center;html=1;fontSize=12;fontStyle=0;aspect=fixed;shape=mxgraph.aws4.resourceIcon;resIcon=mxgraph.aws4.traditional_server;" parent="nVbXTicEFVuqo1gQbMPG-8" vertex="1">
          <mxGeometry x="39" y="40" width="130" height="130" as="geometry" />
        </mxCell>
        <mxCell id="nVbXTicEFVuqo1gQbMPG-6" value="" style="shape=image;verticalLabelPosition=bottom;labelBackgroundColor=default;verticalAlign=top;aspect=fixed;imageAspect=0;image=data:image/png,iVBORw0KGgoAAAANSUhEUgAAAPAAAADICAYAAADWfGxSAAAAAXNSR0IArs4c6QAAGWxJREFUeF7tnQn4fUVZx78uuCCIIiqlIhlmCoJKgoKaC6KGGm6YmZaUGmgJLqTiUuaOG0aS4b6EuISmIuCCuCAJ7komiWuuKJjgUracT89cuf/7v8uZOe+cM3PO+z7Pfe6PPzPvzHznfO/MmXmXy8nFEXAEqkXgctX23DvuCDgCcgL7Q+AIVIyAE7jiyfOuOwJOYH8GHIGKEXACVzx53nVHwAnsz4AjUDECTuCKJ8+77gg4gf0ZcAQqRsAJXPHkedcdASewPwOOQMUIOIErnjzvuiPgBPZnwBGoGAEncMWT5113BJzA/gw4AhUj4ASuePK8646AE9ifAUegYgScwP1N3naSdgifayz5/l9JF0u6aOF79m+/6K+r3lItCDiB7WZqZ0m7zn1uuPDfV+nY1A8kfUvSt5d8f1XSpyT9T8c2vHplCDiB0yZsR0m3kbRv+Obvq6epMqsFec8Jn09L+lz4/NSsBVdUHAJO4HZT8huS9pd0a0n7SNq7XbXBS10q6TOS3ifpdEkfHbxH3gFTBJzAq+GErHeVdICkO5miPpwyyHxaIPP7h+uGt2yFgBN4SyRnhOX7llYgF6rnXwOZ3xlW6EK76d1ah4ATWNqzeVe8n6T7S7rZRB+Xc5sfrHdIenuDw+cnikGVw54qgTkRnpH24CpnLl+n3zVH5gvzNeOaLRCYGoE5fDokrLY3sgBwxDq4sjpB0svD1dWIh1rv0KZC4N0lHRY+l693ugbpuRN5ENjbNTp2Au82R9yrtoPES61AwIlc4KMxVgJff4641ywQ95q7BJFfKumFkty8c+CZHCOBHyvpCZIwbXTJhwBWXy9oTu7fnK8J17wJgTER+HbNivAUSXfbNOjM///nkr4p6Rvhe/5v7JkxbVz2oVvbhg/b/dnffO8iCdtqPrO/+e5qX20BBQSGyBDapWcExkDgK0k6OpB3iAOqC4KJImaKfPq8R8XEk5P1+c/2PT9DNMdWmi31syT9eID2J9tk7QQ+KBAXZ4K+5PzGgeHUxrzyTElnFXjFAqnB4w6Sbi+J/+5L/lnSEyV9sK8Gp95OzQR+fnjXzT2HbHs/HD6nSPpi7gaN9d84OGLs1/zgHBi24cZNbKGO1RgSsyK7ZEagRgKzoryoeedi9c0lPIRvCh+M/n+Wq6Ge9RJU4IHBmAUy55QTA5G/nrORqeuujcC/20SyeLGkX8s0cayuJwXi1rbSxkLCod+MzNeJrdyy/JcCiU9uWd6LRSJQE4GfJOnZkeNrW/zdcyvu1O42uW57aPhgsZZDnibpr3MonrrOGgh8xea97dWS/iDDZOFK9/eSMOCfumwTSPyH4fDLGg+um1jxXQwRKJ3AvLO9UdK9DceMKifuekDx0HqEpHsY435eiGryE2O9k1VXMoGvLYl3J0LZWAkHUi/xFbc1nOx6/jyQrnWlFgVvFYLwtSjqRdYhUCqBb9Csup+UtJPR9H2/sVp6bji9NlI5GTUYx0BiPpaHhzeRxCGXSwcESiQwE2t5AvxaSc+RRAgZl3QEOKnG4g0iWwk/1JiauiQiUBqB2S5/JHEsi9UI4MaptRvbGwEa1DxA0jOaU/vfNFD7HUl7SMJYxiUBgZIIvJck4hlbyGsah4G/kPQ9C2WuYysEfiWQ+E8MsDlD0r0aqzpC4LpEIlAKgQlv8y/NioljQhfBE+io4K/aRY/XbYcAV04cCpIqposQTI8YZZ5ZIhLFEgjMuxVG8KQl6SJnB/Jit+zSHwLYWP9tE9HyFh2bZNf0sI46Jld9aALj98rVzm07Iv+qJinYYyRd0lGPV09D4HrNjcFxzStQ1wifuCPi0+3SEoGhCfzWsHVq2d2lxf5S0l91UeB1zRDATv2IjtoOl3R8Rx2TqT4kgQl7g0tgFzk0mFl20eF1bRHgB/XpHVXitPJPHXVMovpQBMYThq1zl0MrTi7dhrnMx7QriUmhyvx+oszhldOrIQiMZQ/kvWMHGMhdRMY9l3IRwODj2A7d+0ATROEuHepPouoQBMa4AtfAVHm4pFekVvZ6vSJwz+A4ktookT2el1p5CvX6JnDXCeWwiu2ZSz0IkDTuLYndJUAesb2sDHwSu1FutT4JjF8v9714oqSIkzcFtTLqPF7SMYld4aYC802XJQj0SeAjO3gDOXnrf3xJlJZqeolvMvVdFhDoi8D49rL6prijEe6GrbdL3QhcPYTjTTHa+ZokLL5I6+Iyh0BfBMZ75akJyH+38U46oOdg6Qnd9CotEeDmAeeFFHErrYG20ISBxU45JckYtrHYyLqMB4HUO+IfStpH0pfHA0X3kfSxApPJ7s8SuoqB/KMT6nmV8hFgFU6xAyAe+OPKH15/PcxN4D0l4VgfK0TPwFrrwtiKXr4KBFK30iSFYxXuM/9U0YDmJnBq+pM/brLw4WHkMl4EUrfSL5P0qPHCEjeynATm5JnVl+gNMYIRO8bsLuNGgDORj0kiBlqs3NQ4blps+8WUz0ng1Htfts6k6XQZPwKHSWJFjZUnh0CFsfVGVz4ngfEkibW6YstNLCuX6SDwoYRMEB+XtO90IFo90lwE/r1ma0R2uhjhmoCwLGS2d5kOAsTCwlwyVrAPwKtt0pKLwPjpxqb/JDga226X6SFA3uXYNC5+zdiEoslBYOIjYfp2hcjn0NNtRAI2ouIpHkv/3qSC5TALj6XJSg4CP0TS6yIRJYFZjuyDkd3w4gMicGZwHYzpwoNCWtiYOqMqm4PApDIh32yM3K0xVj89poKXHR0CxJiONZslNewjR4dExICsCUy4nIslbR/RB7yUbhNR3ouOF4FzmjhnvxUxvPMlYWs/WbEmMLGqYldS9/Wd7OO31cBJQkcYnRiZ9NmJNYG5lOdyPkZYfVmFXRyBA5sg/6dFwoDdQNfwxJFNllPcmsDkN4rJWvdvkm5cDhzekwIQIKTszhH9eK8kiD9JsSTwlZvtz88iUXT3sEjAJlD8DZIeHDlOy+c4sulhi1sOHDev2K3wnRq/0A8OC4G3XhgCKXfCu0s6r7Bx9NIdSwITeOzlkb3esUlKdlFkHS8+bgRINRsbdeOQDqFrq0bTksCYtpGYqq1g87xL28JebjIIbBOsq3glayuTvcmwJPBHJO3fFnFJHm0yAqyJFSWQ+14RYyZwPKvw5MSSwNikbheBIClWjo4o70Wng0Bs2tkvNB5Ne0wHnstGakVgYv7+KBJAXA5PiqzjxaeBALcT5MAirPDs8wNJuJxi7Xfd8OG6afa31bNcFcJWgyZg+wWRI2e7fVZkHS/uCDgCcwhYERj7VexYY4R3nM/GVPCyjoAjsCUCVgTGm+jUSHB3S7guiGzCizsC40bAisC/35hE4tMbI7y/8H7j4gg4AokIWBGYzAtkYIgRXA4viangZR0BRyDPFjolSLfVj4fPqSMwWQSsSPSnzXH+8ZEoEvjdU6dEgubFHYF5BKwIfHBjOXNyJLS4HZIDycURcAQSEbAiME75pMmIEc/AEIOWl3UEliBgReBdJX0lEmHyH5EHycURcAQSEbAi8FWalCikfowRz0AYg5aXdQQyrsCoxq/3GhEoTzqWUQROXvQyBAhgR9IA7KJdjDMzxMbDerWkQ30WHIE1CGDhd9sQdphvnGYQ3A1xXyWB3numbBBktYUG1DOa8DhkXm8rHtCuLVLTLIe76ZNaDP3rko6TdEyLsqMrYkngZyb49/56ghfT6CbBB7QFAvuF0LIxvuUo+HyITklUy8mIJYHvHrYzMeCRguX1MRW87KgRSElLuwiI5TNdPNiWg71OwrsIQfCw4nJxBLaVdKkBDMc26X2OMNBThQpLAjPg2FhGbHtuXgVS3sncCLxD0r2NGplMuGJrAmMPHbuiemoVo6e2YjXcRrzSsP/EGofEoxdrAhPHiJSPMTLZkKAxII28LOS1vlLcV9LHR46brAnMRTt3czHi6UVj0BpnWezorVPMPloSscpHLdYEBiw8jGJztvo2etSP2cbBYYaLOa6lvK6xzydp+KglB4EJCXpkJGq+jY4EbETFcSvFis9avtiELb6ptdLS9OUg8F0kvS9yoL6NjgRsRMVzERiIbhluRkYE15ZDyUFgWiBcbOz10EGSThkt0j6wdQjk2ELTHjvBl4wZ+lwEfk6TK/iJkcC9rTGHI7Wky/QQyHGIBYpvl3SfMcOZi8BE2/hwAnB3Dk4RCVW9SsUI5LhGAo6LJZE1hO9RSi4CAxZ3cLeORI3s7A+JrOPF60fgjyThXppDWIFZiUcpOQmcEmoWkPH7PHuUaPug1iFAYgASBFgLhkWPtFZair6cBL5+Y9v6yeYynfCxMXKCpEfEVPCyo0HgewnPS5vBk7sr1sCojd7By+QkMINLOcyi3qi3PYPPerkd4N72vAzdG+0qnJvAOOyzCs9CobSdG7yaMEYf7eFDWyAmWI64akQrvb3x2Ee5CucmMHOQYplFPe7vYi26jOfc1Q2IAOF0CKtjJaNchfsg8M3CKnzlhJnwrXQCaBVVuWFwP91JEp5si3JXSXuEz+7h+2odxvc7CVFjOjSXv2ofBGYUeIUcnjAc30ongFZBlYeFE+cDQl9xOsD5oI3sHxz/SQxwkzYV5sp8uUlEj8XfaFL69EXgFDfDGe4nZrpeiJx7L26AAFeLD1rirXajhMwedAef33s0147EY+PvNvLexkaBlfgXbQqXXqYvAoMDHkdPSwTkVZLI5OBSJwI7SPqbFUY63Plz999V7ttku8QHuE0kjr9r4rcd1rXBEur3SeArNnGjCXXCFihF2IYzQS51IcDuC/ISLnaZPFDSmw2HRGQPEs7fYoPOo8YQS7pPAoPngSHmb+p8PVbSi1Mre73eEcA5BfLuvKLlXE73VwokhsgclK2Sezbmvu/uHRXDBvsmMF1/niR+/VKFHwHeY1zKRoDcV89d00XyG3HXm8OZf9bsdcMPyANW9OMfJD24bBjX924IAnMNwFaai/VUwUni3NTKXi8rApjB8tl7QytsdXM5MCw2zRZ9FYnpJ8ZGVcoQBAYo4v8SB7iL8OtNgiuXMhBoS1x6O0QIpVUkZkcY67teBuLG2QljB9V1K017ZK87PbZhL2+GACFreI/kTnbTijtrdMgbhWU/MiRHYzHguzoZagWeAXVyE7Po4I6oUb/rat6xC5OqjsMBFnJ8Yl+DvtGETdqnsb76zsCIQWS28LO74ydIekGLPu3aZELEagyHi5+0KJ+9yNAEZoBfaK4RMLfsIqOPfdQFnA519woPOeaMM1NGcmClypODh1pqfet6EJKUuL8t6VFLSMmVJz7KM3POHec6QFogPlh1YaAyiJRAYKxwAIF74i5C1AXerTC/dOmOAFEyuLLDO8hCzg8RWn5koawHHVxBvbRlOx+VBF7kvO5VSiAwA8Ym1uJqCPdDSDzqSISZn5CrNqaOXK90fbVZ7GYtuyR2GKe1MARZNg19nqz/f/ulEJi+8F5CulELYTV+RnO48ikLZRPSwZbyKxnGS5hh3n1/nkG3pUquOC/pqBDb7FM76mhdvSQC02nekZ7VuvfrCzIRRASx9Ck16lqxatgCEoTBWshYafXjbN23eX1nGdllY3n23ZwdnekujcD0C6eFVxgOnvcTVmO/bloPamr4o01TxYkz2RdKf/dli0/wCQt5U/C6stC1VkeJBKbDWM1YGrij82Uhc/t/ZUe1vgZwOGD1SQm6sGm0NUTC2D5cDRGI0Uo4meY8JquUSuBcJP6qJO783poV1fqU4+WF00EOuVdzX/yuHIoNdabk89rUPM/YKvPNTXVb//+SCZyLxOj1APJbPiLYJHMNYi04KnS947fu0zJ91vG3aKOX7IilE3hGYt6JYyNbrpv4IWxx+3gQU9vg5JkTaGupxc74HzPlUNqu2fFdag3qvL4aCEx/MdnjdBpXQgvxhOKXoZjr6ogWsGTi3bp0+aak62XoJFdn52TQ+0uVtRB41uEuYXlq/OHKOfcz3bkI/LVMq7o1Jl2DTKzrD4nVOHfJJrURGCCIefTCkLw5BRhPJr41ajm20BgzYNRQuvAsEenFWn7YHAxey1rpor4aCTwbA3a6RyQA5O+/W4OW4xCLO9XHJcxP31U+F5wVrNv9UHCSsNa7hb6aCcxAMDbH6DxGur7/7tLcGR4SnCY+03ixfD+m8ULL5rhGIlC7pUFODuju0OzozsyhONgd4OGUVWoncIrpX+qYfzVYdC2Gt/1Wc4IJkfngCcUveo4EXaseBIKbc1gy/+FHBt/btoIhB/mcr9C2woZyOJXgpgcmJcszJR2dqYO9pMlNfZgzjTlK7eUl/XdUDSnl/RfvFEwxY3PM4ucMkfmwSl+45LPJuH/b5n0fKyGu0GbfRMGAcHzjo7tMbicJE9IYwYPrMTEV1pQl88JrjHTlVJOShL5Nf7hTf22bgl3L1ExgQrm8MxKAmPdfnLcpnzMW9Y/nyM2P0SJZU1dEsh9gjxsrHLxcM7bSQnk8wYjWUbqkPD9txvS2xtGfcLq9SM0ExrY5Nrp+m/dfVjuIm3JA1suktWiEkK7Pb1FusYjFQ82u4acJbfddhRSmmHlaykXNucx81A5L3Ut11UxgIjzsFonQuvHiyM5W+fGROkssflzC4d5sHGzPiTEWa9hP4jACM2S99zQC2+KHarErON+QZaJXqZXARN7f9P64CCTvvxiXLx7ubBOIW21o0SVPDKsLkSK7CDsQTCHBep0wD1zpYU9ci1iuvhiscBg2yIl7rQTm4eRdK0WODZkhcCtkxX1KipLC6/AjxUl0VyG/EIYznKjyma3KrLIE5/9EMJVcDIxOZAtwJjTNxyRhqliKdF19OWFn7MQkZ/x8OMsYRGolMNEdCMHjshqBHGZ8ROvgsK3NNnnewwcSn9BjJoZ1z0Xs6ssPPSf63Be/p7EuYydXjNRKYFy1YpM7FwN6Tx3BwIV34aEEG2tWqXkngQ+EPhEPfAjByf7pLRvmB4cdxBmSOJ0vUmokMIdNRQTVLnJGL+sUWffYLg4pBAlYdg1H0rO+35nbkpeInKSyrcGLqqiolG0ftPt5RI1WUP1nphA5rRoPhbAOW7Xl5Bowu6lh6EebOGucqdAni/DGMRh1KlvjCpxy/9sJpIorE+MKIg8pJwXb8WV9eGO4tsuZaoWIIO9fk6OYfmGB1jaI+5BYbtV2jQQmncUqE8I+weUkcpYWhnxBq5JY99WnL4U0mWS54IyAbz5Dv24ctCEmFifmx4fVL0fkynX5tziM46yg9JhdK5+h2giMqeF/9MWIFe1AXCy1+J4XTBD5tYfMfGZ/r8sQnzoUyDq7wiBoOoSNcV5IbTe13lPDld26+hjmsLuCzLF3/Kv0ktMI55JlwqoMeXMmGE/Fq3W92gg85PvvKuJuAht7Zn54Zp+ZY8L8v/E3c0Ew+mUf4irN/3usE8emPvbx/9dtpefb5wcJImPL3XVFxtMII4tFIdQt5B369aIz7rUROMX/tytIqcTt2u7Y6t8gpBxpG6WS92LubHFYSd3iLmZa4C739ZJeORZwayMw/qV79gQ+Wyx+vRe3yj01P8pmCLFzSsLI2OZCZj5tr3ewGuO1gu04J8wcmMV6ryV0td8qNRGYd8w+LtRJwUKaESdunmeRwPopnlKz3mB7DKHxs+abs4BlSeywe8f77C2Szs4zlOG11kRg0l3mtOBhZTjGidvLQ3lusxrubdQSp+zM22KSbfJOX2DURrFqaiIwnjFHZUCSbRneNL7iZgB3hUrLVLKzJliFcbzoevDVHwoGLdVEYCId3NdgzDMVrOYcijlxDUGNUGW5Cs83e+0QuiiiK/UWrYnA2KcebgA170RcUzhxDcDsoCLHKkx3OOQiI8QkpCYCd005eqIk7v+cuOU82rlWYX4c8CYavdREYCYjZcLJRMhkEmjbpSwECKiAlZa1YPRCZM7Sw9p2HndtBI5ZhQlrCnHb3ht2BtMVRCNAlI9c80O6FA4nRy21EZjJgMTcI65Kh0lsIj5FRU4Y9VPUbXCYTt68m4qltTnrIIPGqKVGAjMhkBeDAMiMPSuG8FwHsU3mYt+lHgSencm5nzhcmG+OWmol8KgnZWKDY/VlFc4hhB0m3O1oxQk82qmtamDfzuRP7QSu6jHwztaKANEe727ced9CGwPq6hyBVQjkMJP1Qyx/3hyBnhA4NIOPrl8j9TR53owjQKpUYkiTGM1CuJnYN+RrttBXrA4/xCp2aibXsbZxm9sAc6Qk8h2PXpzAo5/iqgZIjiVW4y4yicOrGUBO4C6Pite1RmCHJi8zycO6CIECFpOtddFXdF0ncNHTM8nO7RTyE+8XOXqSaz+0QwC8yObKKO4ELmMevBdbI/BwSS+StN0GcAixSxI38hlPTpzAk5vyqga8V2PffueE/MRVDbJLZ53AXdDzun0jEJOfuO++DdKeE3gQ2L1RR8AGASewDY6uxREYBAEn8CCwe6OOgA0CTmAbHF2LIzAIAk7gQWD3Rh0BGwScwDY4uhZHYBAEnMCDwO6NOgI2CDiBbXB0LY7AIAg4gQeB3Rt1BGwQcALb4OhaHIFBEHACDwK7N+oI2CDgBLbB0bU4AoMg4AQeBHZv1BGwQcAJbIOja3EEBkHACTwI7N6oI2CDgBPYBkfX4ggMgoATeBDYvVFHwAYBJ7ANjq7FERgEASfwILB7o46ADQJOYBscXYsjMAgCTuBBYPdGHQEbBP4PpEqa9iTc2LkAAAAASUVORK5CYII=;" parent="nVbXTicEFVuqo1gQbMPG-8" vertex="1">
          <mxGeometry x="86" y="110" width="36" height="30" as="geometry" />
        </mxCell>
        <mxCell id="nVbXTicEFVuqo1gQbMPG-9" value="沙盒1" style="swimlane;whiteSpace=wrap;html=1;startSize=23;" parent="nVbXTicEFVuqo1gQbMPG-2" vertex="1">
          <mxGeometry x="450" y="40" width="200" height="200" as="geometry" />
        </mxCell>
        <mxCell id="nVbXTicEFVuqo1gQbMPG-11" value="企微A" style="sketch=0;outlineConnect=0;fontColor=#232F3E;gradientColor=none;strokeColor=#232F3E;fillColor=#ffffff;dashed=0;verticalLabelPosition=bottom;verticalAlign=top;align=center;html=1;fontSize=12;fontStyle=0;aspect=fixed;shape=mxgraph.aws4.resourceIcon;resIcon=mxgraph.aws4.traditional_server;" parent="nVbXTicEFVuqo1gQbMPG-9" vertex="1">
          <mxGeometry x="35" y="35" width="130" height="130" as="geometry" />
        </mxCell>
        <mxCell id="nVbXTicEFVuqo1gQbMPG-12" value="" style="shape=image;verticalLabelPosition=bottom;labelBackgroundColor=default;verticalAlign=top;aspect=fixed;imageAspect=0;image=data:image/png,iVBORw0KGgoAAAANSUhEUgAAAPAAAADICAYAAADWfGxSAAAAAXNSR0IArs4c6QAAGWxJREFUeF7tnQn4fUVZx78uuCCIIiqlIhlmCoJKgoKaC6KGGm6YmZaUGmgJLqTiUuaOG0aS4b6EuISmIuCCuCAJ7komiWuuKJjgUracT89cuf/7v8uZOe+cM3PO+z7Pfe6PPzPvzHznfO/MmXmXy8nFEXAEqkXgctX23DvuCDgCcgL7Q+AIVIyAE7jiyfOuOwJOYH8GHIGKEXACVzx53nVHwAnsz4AjUDECTuCKJ8+77gg4gf0ZcAQqRsAJXPHkedcdASewPwOOQMUIOIErnjzvuiPgBPZnwBGoGAEncMWT5113BJzA/gw4AhUj4ASuePK8646AE9ifAUegYgScwP1N3naSdgifayz5/l9JF0u6aOF79m+/6K+r3lItCDiB7WZqZ0m7zn1uuPDfV+nY1A8kfUvSt5d8f1XSpyT9T8c2vHplCDiB0yZsR0m3kbRv+Obvq6epMqsFec8Jn09L+lz4/NSsBVdUHAJO4HZT8huS9pd0a0n7SNq7XbXBS10q6TOS3ifpdEkfHbxH3gFTBJzAq+GErHeVdICkO5miPpwyyHxaIPP7h+uGt2yFgBN4SyRnhOX7llYgF6rnXwOZ3xlW6EK76d1ah4ATWNqzeVe8n6T7S7rZRB+Xc5sfrHdIenuDw+cnikGVw54qgTkRnpH24CpnLl+n3zVH5gvzNeOaLRCYGoE5fDokrLY3sgBwxDq4sjpB0svD1dWIh1rv0KZC4N0lHRY+l693ugbpuRN5ENjbNTp2Au82R9yrtoPES61AwIlc4KMxVgJff4641ywQ95q7BJFfKumFkty8c+CZHCOBHyvpCZIwbXTJhwBWXy9oTu7fnK8J17wJgTER+HbNivAUSXfbNOjM///nkr4p6Rvhe/5v7JkxbVz2oVvbhg/b/dnffO8iCdtqPrO/+e5qX20BBQSGyBDapWcExkDgK0k6OpB3iAOqC4KJImaKfPq8R8XEk5P1+c/2PT9DNMdWmi31syT9eID2J9tk7QQ+KBAXZ4K+5PzGgeHUxrzyTElnFXjFAqnB4w6Sbi+J/+5L/lnSEyV9sK8Gp95OzQR+fnjXzT2HbHs/HD6nSPpi7gaN9d84OGLs1/zgHBi24cZNbKGO1RgSsyK7ZEagRgKzoryoeedi9c0lPIRvCh+M/n+Wq6Ge9RJU4IHBmAUy55QTA5G/nrORqeuujcC/20SyeLGkX8s0cayuJwXi1rbSxkLCod+MzNeJrdyy/JcCiU9uWd6LRSJQE4GfJOnZkeNrW/zdcyvu1O42uW57aPhgsZZDnibpr3MonrrOGgh8xea97dWS/iDDZOFK9/eSMOCfumwTSPyH4fDLGg+um1jxXQwRKJ3AvLO9UdK9DceMKifuekDx0HqEpHsY435eiGryE2O9k1VXMoGvLYl3J0LZWAkHUi/xFbc1nOx6/jyQrnWlFgVvFYLwtSjqRdYhUCqBb9Csup+UtJPR9H2/sVp6bji9NlI5GTUYx0BiPpaHhzeRxCGXSwcESiQwE2t5AvxaSc+RRAgZl3QEOKnG4g0iWwk/1JiauiQiUBqB2S5/JHEsi9UI4MaptRvbGwEa1DxA0jOaU/vfNFD7HUl7SMJYxiUBgZIIvJck4hlbyGsah4G/kPQ9C2WuYysEfiWQ+E8MsDlD0r0aqzpC4LpEIlAKgQlv8y/NioljQhfBE+io4K/aRY/XbYcAV04cCpIqposQTI8YZZ5ZIhLFEgjMuxVG8KQl6SJnB/Jit+zSHwLYWP9tE9HyFh2bZNf0sI46Jld9aALj98rVzm07Iv+qJinYYyRd0lGPV09D4HrNjcFxzStQ1wifuCPi0+3SEoGhCfzWsHVq2d2lxf5S0l91UeB1zRDATv2IjtoOl3R8Rx2TqT4kgQl7g0tgFzk0mFl20eF1bRHgB/XpHVXitPJPHXVMovpQBMYThq1zl0MrTi7dhrnMx7QriUmhyvx+oszhldOrIQiMZQ/kvWMHGMhdRMY9l3IRwODj2A7d+0ATROEuHepPouoQBMa4AtfAVHm4pFekVvZ6vSJwz+A4ktookT2el1p5CvX6JnDXCeWwiu2ZSz0IkDTuLYndJUAesb2sDHwSu1FutT4JjF8v9714oqSIkzcFtTLqPF7SMYld4aYC802XJQj0SeAjO3gDOXnrf3xJlJZqeolvMvVdFhDoi8D49rL6prijEe6GrbdL3QhcPYTjTTHa+ZokLL5I6+Iyh0BfBMZ75akJyH+38U46oOdg6Qnd9CotEeDmAeeFFHErrYG20ISBxU45JckYtrHYyLqMB4HUO+IfStpH0pfHA0X3kfSxApPJ7s8SuoqB/KMT6nmV8hFgFU6xAyAe+OPKH15/PcxN4D0l4VgfK0TPwFrrwtiKXr4KBFK30iSFYxXuM/9U0YDmJnBq+pM/brLw4WHkMl4EUrfSL5P0qPHCEjeynATm5JnVl+gNMYIRO8bsLuNGgDORj0kiBlqs3NQ4blps+8WUz0ng1Htfts6k6XQZPwKHSWJFjZUnh0CFsfVGVz4ngfEkibW6YstNLCuX6SDwoYRMEB+XtO90IFo90lwE/r1ma0R2uhjhmoCwLGS2d5kOAsTCwlwyVrAPwKtt0pKLwPjpxqb/JDga226X6SFA3uXYNC5+zdiEoslBYOIjYfp2hcjn0NNtRAI2ouIpHkv/3qSC5TALj6XJSg4CP0TS6yIRJYFZjuyDkd3w4gMicGZwHYzpwoNCWtiYOqMqm4PApDIh32yM3K0xVj89poKXHR0CxJiONZslNewjR4dExICsCUy4nIslbR/RB7yUbhNR3ouOF4FzmjhnvxUxvPMlYWs/WbEmMLGqYldS9/Wd7OO31cBJQkcYnRiZ9NmJNYG5lOdyPkZYfVmFXRyBA5sg/6dFwoDdQNfwxJFNllPcmsDkN4rJWvdvkm5cDhzekwIQIKTszhH9eK8kiD9JsSTwlZvtz88iUXT3sEjAJlD8DZIeHDlOy+c4sulhi1sOHDev2K3wnRq/0A8OC4G3XhgCKXfCu0s6r7Bx9NIdSwITeOzlkb3esUlKdlFkHS8+bgRINRsbdeOQDqFrq0bTksCYtpGYqq1g87xL28JebjIIbBOsq3glayuTvcmwJPBHJO3fFnFJHm0yAqyJFSWQ+14RYyZwPKvw5MSSwNikbheBIClWjo4o70Wng0Bs2tkvNB5Ne0wHnstGakVgYv7+KBJAXA5PiqzjxaeBALcT5MAirPDs8wNJuJxi7Xfd8OG6afa31bNcFcJWgyZg+wWRI2e7fVZkHS/uCDgCcwhYERj7VexYY4R3nM/GVPCyjoAjsCUCVgTGm+jUSHB3S7guiGzCizsC40bAisC/35hE4tMbI7y/8H7j4gg4AokIWBGYzAtkYIgRXA4viangZR0BRyDPFjolSLfVj4fPqSMwWQSsSPSnzXH+8ZEoEvjdU6dEgubFHYF5BKwIfHBjOXNyJLS4HZIDycURcAQSEbAiME75pMmIEc/AEIOWl3UEliBgReBdJX0lEmHyH5EHycURcAQSEbAi8FWalCikfowRz0AYg5aXdQQyrsCoxq/3GhEoTzqWUQROXvQyBAhgR9IA7KJdjDMzxMbDerWkQ30WHIE1CGDhd9sQdphvnGYQ3A1xXyWB3numbBBktYUG1DOa8DhkXm8rHtCuLVLTLIe76ZNaDP3rko6TdEyLsqMrYkngZyb49/56ghfT6CbBB7QFAvuF0LIxvuUo+HyITklUy8mIJYHvHrYzMeCRguX1MRW87KgRSElLuwiI5TNdPNiWg71OwrsIQfCw4nJxBLaVdKkBDMc26X2OMNBThQpLAjPg2FhGbHtuXgVS3sncCLxD0r2NGplMuGJrAmMPHbuiemoVo6e2YjXcRrzSsP/EGofEoxdrAhPHiJSPMTLZkKAxII28LOS1vlLcV9LHR46brAnMRTt3czHi6UVj0BpnWezorVPMPloSscpHLdYEBiw8jGJztvo2etSP2cbBYYaLOa6lvK6xzydp+KglB4EJCXpkJGq+jY4EbETFcSvFis9avtiELb6ptdLS9OUg8F0kvS9yoL6NjgRsRMVzERiIbhluRkYE15ZDyUFgWiBcbOz10EGSThkt0j6wdQjk2ELTHjvBl4wZ+lwEfk6TK/iJkcC9rTGHI7Wky/QQyHGIBYpvl3SfMcOZi8BE2/hwAnB3Dk4RCVW9SsUI5LhGAo6LJZE1hO9RSi4CAxZ3cLeORI3s7A+JrOPF60fgjyThXppDWIFZiUcpOQmcEmoWkPH7PHuUaPug1iFAYgASBFgLhkWPtFZair6cBL5+Y9v6yeYynfCxMXKCpEfEVPCyo0HgewnPS5vBk7sr1sCojd7By+QkMINLOcyi3qi3PYPPerkd4N72vAzdG+0qnJvAOOyzCs9CobSdG7yaMEYf7eFDWyAmWI64akQrvb3x2Ee5CucmMHOQYplFPe7vYi26jOfc1Q2IAOF0CKtjJaNchfsg8M3CKnzlhJnwrXQCaBVVuWFwP91JEp5si3JXSXuEz+7h+2odxvc7CVFjOjSXv2ofBGYUeIUcnjAc30ongFZBlYeFE+cDQl9xOsD5oI3sHxz/SQxwkzYV5sp8uUlEj8XfaFL69EXgFDfDGe4nZrpeiJx7L26AAFeLD1rirXajhMwedAef33s0147EY+PvNvLexkaBlfgXbQqXXqYvAoMDHkdPSwTkVZLI5OBSJwI7SPqbFUY63Plz999V7ttku8QHuE0kjr9r4rcd1rXBEur3SeArNnGjCXXCFihF2IYzQS51IcDuC/ISLnaZPFDSmw2HRGQPEs7fYoPOo8YQS7pPAoPngSHmb+p8PVbSi1Mre73eEcA5BfLuvKLlXE73VwokhsgclK2Sezbmvu/uHRXDBvsmMF1/niR+/VKFHwHeY1zKRoDcV89d00XyG3HXm8OZf9bsdcMPyANW9OMfJD24bBjX924IAnMNwFaai/VUwUni3NTKXi8rApjB8tl7QytsdXM5MCw2zRZ9FYnpJ8ZGVcoQBAYo4v8SB7iL8OtNgiuXMhBoS1x6O0QIpVUkZkcY67teBuLG2QljB9V1K017ZK87PbZhL2+GACFreI/kTnbTijtrdMgbhWU/MiRHYzHguzoZagWeAXVyE7Po4I6oUb/rat6xC5OqjsMBFnJ8Yl+DvtGETdqnsb76zsCIQWS28LO74ydIekGLPu3aZELEagyHi5+0KJ+9yNAEZoBfaK4RMLfsIqOPfdQFnA519woPOeaMM1NGcmClypODh1pqfet6EJKUuL8t6VFLSMmVJz7KM3POHec6QFogPlh1YaAyiJRAYKxwAIF74i5C1AXerTC/dOmOAFEyuLLDO8hCzg8RWn5koawHHVxBvbRlOx+VBF7kvO5VSiAwA8Ym1uJqCPdDSDzqSISZn5CrNqaOXK90fbVZ7GYtuyR2GKe1MARZNg19nqz/f/ulEJi+8F5CulELYTV+RnO48ikLZRPSwZbyKxnGS5hh3n1/nkG3pUquOC/pqBDb7FM76mhdvSQC02nekZ7VuvfrCzIRRASx9Ck16lqxatgCEoTBWshYafXjbN23eX1nGdllY3n23ZwdnekujcD0C6eFVxgOnvcTVmO/bloPamr4o01TxYkz2RdKf/dli0/wCQt5U/C6stC1VkeJBKbDWM1YGrij82Uhc/t/ZUe1vgZwOGD1SQm6sGm0NUTC2D5cDRGI0Uo4meY8JquUSuBcJP6qJO783poV1fqU4+WF00EOuVdzX/yuHIoNdabk89rUPM/YKvPNTXVb//+SCZyLxOj1APJbPiLYJHMNYi04KnS947fu0zJ91vG3aKOX7IilE3hGYt6JYyNbrpv4IWxx+3gQU9vg5JkTaGupxc74HzPlUNqu2fFdag3qvL4aCEx/MdnjdBpXQgvxhOKXoZjr6ogWsGTi3bp0+aak62XoJFdn52TQ+0uVtRB41uEuYXlq/OHKOfcz3bkI/LVMq7o1Jl2DTKzrD4nVOHfJJrURGCCIefTCkLw5BRhPJr41ajm20BgzYNRQuvAsEenFWn7YHAxey1rpor4aCTwbA3a6RyQA5O+/W4OW4xCLO9XHJcxP31U+F5wVrNv9UHCSsNa7hb6aCcxAMDbH6DxGur7/7tLcGR4SnCY+03ixfD+m8ULL5rhGIlC7pUFODuju0OzozsyhONgd4OGUVWoncIrpX+qYfzVYdC2Gt/1Wc4IJkfngCcUveo4EXaseBIKbc1gy/+FHBt/btoIhB/mcr9C2woZyOJXgpgcmJcszJR2dqYO9pMlNfZgzjTlK7eUl/XdUDSnl/RfvFEwxY3PM4ucMkfmwSl+45LPJuH/b5n0fKyGu0GbfRMGAcHzjo7tMbicJE9IYwYPrMTEV1pQl88JrjHTlVJOShL5Nf7hTf22bgl3L1ExgQrm8MxKAmPdfnLcpnzMW9Y/nyM2P0SJZU1dEsh9gjxsrHLxcM7bSQnk8wYjWUbqkPD9txvS2xtGfcLq9SM0ExrY5Nrp+m/dfVjuIm3JA1suktWiEkK7Pb1FusYjFQ82u4acJbfddhRSmmHlaykXNucx81A5L3Ut11UxgIjzsFonQuvHiyM5W+fGROkssflzC4d5sHGzPiTEWa9hP4jACM2S99zQC2+KHarErON+QZaJXqZXARN7f9P64CCTvvxiXLx7ubBOIW21o0SVPDKsLkSK7CDsQTCHBep0wD1zpYU9ci1iuvhiscBg2yIl7rQTm4eRdK0WODZkhcCtkxX1KipLC6/AjxUl0VyG/EIYznKjyma3KrLIE5/9EMJVcDIxOZAtwJjTNxyRhqliKdF19OWFn7MQkZ/x8OMsYRGolMNEdCMHjshqBHGZ8ROvgsK3NNnnewwcSn9BjJoZ1z0Xs6ssPPSf63Be/p7EuYydXjNRKYFy1YpM7FwN6Tx3BwIV34aEEG2tWqXkngQ+EPhEPfAjByf7pLRvmB4cdxBmSOJ0vUmokMIdNRQTVLnJGL+sUWffYLg4pBAlYdg1H0rO+35nbkpeInKSyrcGLqqiolG0ftPt5RI1WUP1nphA5rRoPhbAOW7Xl5Bowu6lh6EebOGucqdAni/DGMRh1KlvjCpxy/9sJpIorE+MKIg8pJwXb8WV9eGO4tsuZaoWIIO9fk6OYfmGB1jaI+5BYbtV2jQQmncUqE8I+weUkcpYWhnxBq5JY99WnL4U0mWS54IyAbz5Dv24ctCEmFifmx4fVL0fkynX5tziM46yg9JhdK5+h2giMqeF/9MWIFe1AXCy1+J4XTBD5tYfMfGZ/r8sQnzoUyDq7wiBoOoSNcV5IbTe13lPDld26+hjmsLuCzLF3/Kv0ktMI55JlwqoMeXMmGE/Fq3W92gg85PvvKuJuAht7Zn54Zp+ZY8L8v/E3c0Ew+mUf4irN/3usE8emPvbx/9dtpefb5wcJImPL3XVFxtMII4tFIdQt5B369aIz7rUROMX/tytIqcTt2u7Y6t8gpBxpG6WS92LubHFYSd3iLmZa4C739ZJeORZwayMw/qV79gQ+Wyx+vRe3yj01P8pmCLFzSsLI2OZCZj5tr3ewGuO1gu04J8wcmMV6ryV0td8qNRGYd8w+LtRJwUKaESdunmeRwPopnlKz3mB7DKHxs+abs4BlSeywe8f77C2Szs4zlOG11kRg0l3mtOBhZTjGidvLQ3lusxrubdQSp+zM22KSbfJOX2DURrFqaiIwnjFHZUCSbRneNL7iZgB3hUrLVLKzJliFcbzoevDVHwoGLdVEYCId3NdgzDMVrOYcijlxDUGNUGW5Cs83e+0QuiiiK/UWrYnA2KcebgA170RcUzhxDcDsoCLHKkx3OOQiI8QkpCYCd005eqIk7v+cuOU82rlWYX4c8CYavdREYCYjZcLJRMhkEmjbpSwECKiAlZa1YPRCZM7Sw9p2HndtBI5ZhQlrCnHb3ht2BtMVRCNAlI9c80O6FA4nRy21EZjJgMTcI65Kh0lsIj5FRU4Y9VPUbXCYTt68m4qltTnrIIPGqKVGAjMhkBeDAMiMPSuG8FwHsU3mYt+lHgSencm5nzhcmG+OWmol8KgnZWKDY/VlFc4hhB0m3O1oxQk82qmtamDfzuRP7QSu6jHwztaKANEe727ced9CGwPq6hyBVQjkMJP1Qyx/3hyBnhA4NIOPrl8j9TR53owjQKpUYkiTGM1CuJnYN+RrttBXrA4/xCp2aibXsbZxm9sAc6Qk8h2PXpzAo5/iqgZIjiVW4y4yicOrGUBO4C6Pite1RmCHJi8zycO6CIECFpOtddFXdF0ncNHTM8nO7RTyE+8XOXqSaz+0QwC8yObKKO4ELmMevBdbI/BwSS+StN0GcAixSxI38hlPTpzAk5vyqga8V2PffueE/MRVDbJLZ53AXdDzun0jEJOfuO++DdKeE3gQ2L1RR8AGASewDY6uxREYBAEn8CCwe6OOgA0CTmAbHF2LIzAIAk7gQWD3Rh0BGwScwDY4uhZHYBAEnMCDwO6NOgI2CDiBbXB0LY7AIAg4gQeB3Rt1BGwQcALb4OhaHIFBEHACDwK7N+oI2CDgBLbB0bU4AoMg4AQeBHZv1BGwQcAJbIOja3EEBkHACTwI7N6oI2CDgBPYBkfX4ggMgoATeBDYvVFHwAYBJ7ANjq7FERgEASfwILB7o46ADQJOYBscXYsjMAgCTuBBYPdGHQEbBP4PpEqa9iTc2LkAAAAASUVORK5CYII=;" parent="nVbXTicEFVuqo1gQbMPG-9" vertex="1">
          <mxGeometry x="82" y="110" width="36" height="30" as="geometry" />
        </mxCell>
        <mxCell id="nVbXTicEFVuqo1gQbMPG-10" value="沙盒2" style="swimlane;whiteSpace=wrap;html=1;startSize=23;" parent="nVbXTicEFVuqo1gQbMPG-2" vertex="1">
          <mxGeometry x="450" y="270" width="200" height="210" as="geometry" />
        </mxCell>
        <mxCell id="nVbXTicEFVuqo1gQbMPG-13" value="新企微" style="sketch=0;outlineConnect=0;fontColor=#232F3E;gradientColor=none;strokeColor=#232F3E;fillColor=#ffffff;dashed=0;verticalLabelPosition=bottom;verticalAlign=top;align=center;html=1;fontSize=12;fontStyle=0;aspect=fixed;shape=mxgraph.aws4.resourceIcon;resIcon=mxgraph.aws4.traditional_server;" parent="nVbXTicEFVuqo1gQbMPG-10" vertex="1">
          <mxGeometry x="35" y="45" width="130" height="130" as="geometry" />
        </mxCell>
        <mxCell id="nVbXTicEFVuqo1gQbMPG-14" value="" style="shape=image;verticalLabelPosition=bottom;labelBackgroundColor=default;verticalAlign=top;aspect=fixed;imageAspect=0;image=data:image/png,iVBORw0KGgoAAAANSUhEUgAAAPAAAADICAYAAADWfGxSAAAAAXNSR0IArs4c6QAAGWxJREFUeF7tnQn4fUVZx78uuCCIIiqlIhlmCoJKgoKaC6KGGm6YmZaUGmgJLqTiUuaOG0aS4b6EuISmIuCCuCAJ7komiWuuKJjgUracT89cuf/7v8uZOe+cM3PO+z7Pfe6PPzPvzHznfO/MmXmXy8nFEXAEqkXgctX23DvuCDgCcgL7Q+AIVIyAE7jiyfOuOwJOYH8GHIGKEXACVzx53nVHwAnsz4AjUDECTuCKJ8+77gg4gf0ZcAQqRsAJXPHkedcdASewPwOOQMUIOIErnjzvuiPgBPZnwBGoGAEncMWT5113BJzA/gw4AhUj4ASuePK8646AE9ifAUegYgScwP1N3naSdgifayz5/l9JF0u6aOF79m+/6K+r3lItCDiB7WZqZ0m7zn1uuPDfV+nY1A8kfUvSt5d8f1XSpyT9T8c2vHplCDiB0yZsR0m3kbRv+Obvq6epMqsFec8Jn09L+lz4/NSsBVdUHAJO4HZT8huS9pd0a0n7SNq7XbXBS10q6TOS3ifpdEkfHbxH3gFTBJzAq+GErHeVdICkO5miPpwyyHxaIPP7h+uGt2yFgBN4SyRnhOX7llYgF6rnXwOZ3xlW6EK76d1ah4ATWNqzeVe8n6T7S7rZRB+Xc5sfrHdIenuDw+cnikGVw54qgTkRnpH24CpnLl+n3zVH5gvzNeOaLRCYGoE5fDokrLY3sgBwxDq4sjpB0svD1dWIh1rv0KZC4N0lHRY+l693ugbpuRN5ENjbNTp2Au82R9yrtoPES61AwIlc4KMxVgJff4641ywQ95q7BJFfKumFkty8c+CZHCOBHyvpCZIwbXTJhwBWXy9oTu7fnK8J17wJgTER+HbNivAUSXfbNOjM///nkr4p6Rvhe/5v7JkxbVz2oVvbhg/b/dnffO8iCdtqPrO/+e5qX20BBQSGyBDapWcExkDgK0k6OpB3iAOqC4KJImaKfPq8R8XEk5P1+c/2PT9DNMdWmi31syT9eID2J9tk7QQ+KBAXZ4K+5PzGgeHUxrzyTElnFXjFAqnB4w6Sbi+J/+5L/lnSEyV9sK8Gp95OzQR+fnjXzT2HbHs/HD6nSPpi7gaN9d84OGLs1/zgHBi24cZNbKGO1RgSsyK7ZEagRgKzoryoeedi9c0lPIRvCh+M/n+Wq6Ge9RJU4IHBmAUy55QTA5G/nrORqeuujcC/20SyeLGkX8s0cayuJwXi1rbSxkLCod+MzNeJrdyy/JcCiU9uWd6LRSJQE4GfJOnZkeNrW/zdcyvu1O42uW57aPhgsZZDnibpr3MonrrOGgh8xea97dWS/iDDZOFK9/eSMOCfumwTSPyH4fDLGg+um1jxXQwRKJ3AvLO9UdK9DceMKifuekDx0HqEpHsY435eiGryE2O9k1VXMoGvLYl3J0LZWAkHUi/xFbc1nOx6/jyQrnWlFgVvFYLwtSjqRdYhUCqBb9Csup+UtJPR9H2/sVp6bji9NlI5GTUYx0BiPpaHhzeRxCGXSwcESiQwE2t5AvxaSc+RRAgZl3QEOKnG4g0iWwk/1JiauiQiUBqB2S5/JHEsi9UI4MaptRvbGwEa1DxA0jOaU/vfNFD7HUl7SMJYxiUBgZIIvJck4hlbyGsah4G/kPQ9C2WuYysEfiWQ+E8MsDlD0r0aqzpC4LpEIlAKgQlv8y/NioljQhfBE+io4K/aRY/XbYcAV04cCpIqposQTI8YZZ5ZIhLFEgjMuxVG8KQl6SJnB/Jit+zSHwLYWP9tE9HyFh2bZNf0sI46Jld9aALj98rVzm07Iv+qJinYYyRd0lGPV09D4HrNjcFxzStQ1wifuCPi0+3SEoGhCfzWsHVq2d2lxf5S0l91UeB1zRDATv2IjtoOl3R8Rx2TqT4kgQl7g0tgFzk0mFl20eF1bRHgB/XpHVXitPJPHXVMovpQBMYThq1zl0MrTi7dhrnMx7QriUmhyvx+oszhldOrIQiMZQ/kvWMHGMhdRMY9l3IRwODj2A7d+0ATROEuHepPouoQBMa4AtfAVHm4pFekVvZ6vSJwz+A4ktookT2el1p5CvX6JnDXCeWwiu2ZSz0IkDTuLYndJUAesb2sDHwSu1FutT4JjF8v9714oqSIkzcFtTLqPF7SMYld4aYC802XJQj0SeAjO3gDOXnrf3xJlJZqeolvMvVdFhDoi8D49rL6prijEe6GrbdL3QhcPYTjTTHa+ZokLL5I6+Iyh0BfBMZ75akJyH+38U46oOdg6Qnd9CotEeDmAeeFFHErrYG20ISBxU45JckYtrHYyLqMB4HUO+IfStpH0pfHA0X3kfSxApPJ7s8SuoqB/KMT6nmV8hFgFU6xAyAe+OPKH15/PcxN4D0l4VgfK0TPwFrrwtiKXr4KBFK30iSFYxXuM/9U0YDmJnBq+pM/brLw4WHkMl4EUrfSL5P0qPHCEjeynATm5JnVl+gNMYIRO8bsLuNGgDORj0kiBlqs3NQ4blps+8WUz0ng1Htfts6k6XQZPwKHSWJFjZUnh0CFsfVGVz4ngfEkibW6YstNLCuX6SDwoYRMEB+XtO90IFo90lwE/r1ma0R2uhjhmoCwLGS2d5kOAsTCwlwyVrAPwKtt0pKLwPjpxqb/JDga226X6SFA3uXYNC5+zdiEoslBYOIjYfp2hcjn0NNtRAI2ouIpHkv/3qSC5TALj6XJSg4CP0TS6yIRJYFZjuyDkd3w4gMicGZwHYzpwoNCWtiYOqMqm4PApDIh32yM3K0xVj89poKXHR0CxJiONZslNewjR4dExICsCUy4nIslbR/RB7yUbhNR3ouOF4FzmjhnvxUxvPMlYWs/WbEmMLGqYldS9/Wd7OO31cBJQkcYnRiZ9NmJNYG5lOdyPkZYfVmFXRyBA5sg/6dFwoDdQNfwxJFNllPcmsDkN4rJWvdvkm5cDhzekwIQIKTszhH9eK8kiD9JsSTwlZvtz88iUXT3sEjAJlD8DZIeHDlOy+c4sulhi1sOHDev2K3wnRq/0A8OC4G3XhgCKXfCu0s6r7Bx9NIdSwITeOzlkb3esUlKdlFkHS8+bgRINRsbdeOQDqFrq0bTksCYtpGYqq1g87xL28JebjIIbBOsq3glayuTvcmwJPBHJO3fFnFJHm0yAqyJFSWQ+14RYyZwPKvw5MSSwNikbheBIClWjo4o70Wng0Bs2tkvNB5Ne0wHnstGakVgYv7+KBJAXA5PiqzjxaeBALcT5MAirPDs8wNJuJxi7Xfd8OG6afa31bNcFcJWgyZg+wWRI2e7fVZkHS/uCDgCcwhYERj7VexYY4R3nM/GVPCyjoAjsCUCVgTGm+jUSHB3S7guiGzCizsC40bAisC/35hE4tMbI7y/8H7j4gg4AokIWBGYzAtkYIgRXA4viangZR0BRyDPFjolSLfVj4fPqSMwWQSsSPSnzXH+8ZEoEvjdU6dEgubFHYF5BKwIfHBjOXNyJLS4HZIDycURcAQSEbAiME75pMmIEc/AEIOWl3UEliBgReBdJX0lEmHyH5EHycURcAQSEbAi8FWalCikfowRz0AYg5aXdQQyrsCoxq/3GhEoTzqWUQROXvQyBAhgR9IA7KJdjDMzxMbDerWkQ30WHIE1CGDhd9sQdphvnGYQ3A1xXyWB3numbBBktYUG1DOa8DhkXm8rHtCuLVLTLIe76ZNaDP3rko6TdEyLsqMrYkngZyb49/56ghfT6CbBB7QFAvuF0LIxvuUo+HyITklUy8mIJYHvHrYzMeCRguX1MRW87KgRSElLuwiI5TNdPNiWg71OwrsIQfCw4nJxBLaVdKkBDMc26X2OMNBThQpLAjPg2FhGbHtuXgVS3sncCLxD0r2NGplMuGJrAmMPHbuiemoVo6e2YjXcRrzSsP/EGofEoxdrAhPHiJSPMTLZkKAxII28LOS1vlLcV9LHR46brAnMRTt3czHi6UVj0BpnWezorVPMPloSscpHLdYEBiw8jGJztvo2etSP2cbBYYaLOa6lvK6xzydp+KglB4EJCXpkJGq+jY4EbETFcSvFis9avtiELb6ptdLS9OUg8F0kvS9yoL6NjgRsRMVzERiIbhluRkYE15ZDyUFgWiBcbOz10EGSThkt0j6wdQjk2ELTHjvBl4wZ+lwEfk6TK/iJkcC9rTGHI7Wky/QQyHGIBYpvl3SfMcOZi8BE2/hwAnB3Dk4RCVW9SsUI5LhGAo6LJZE1hO9RSi4CAxZ3cLeORI3s7A+JrOPF60fgjyThXppDWIFZiUcpOQmcEmoWkPH7PHuUaPug1iFAYgASBFgLhkWPtFZair6cBL5+Y9v6yeYynfCxMXKCpEfEVPCyo0HgewnPS5vBk7sr1sCojd7By+QkMINLOcyi3qi3PYPPerkd4N72vAzdG+0qnJvAOOyzCs9CobSdG7yaMEYf7eFDWyAmWI64akQrvb3x2Ee5CucmMHOQYplFPe7vYi26jOfc1Q2IAOF0CKtjJaNchfsg8M3CKnzlhJnwrXQCaBVVuWFwP91JEp5si3JXSXuEz+7h+2odxvc7CVFjOjSXv2ofBGYUeIUcnjAc30ongFZBlYeFE+cDQl9xOsD5oI3sHxz/SQxwkzYV5sp8uUlEj8XfaFL69EXgFDfDGe4nZrpeiJx7L26AAFeLD1rirXajhMwedAef33s0147EY+PvNvLexkaBlfgXbQqXXqYvAoMDHkdPSwTkVZLI5OBSJwI7SPqbFUY63Plz999V7ttku8QHuE0kjr9r4rcd1rXBEur3SeArNnGjCXXCFihF2IYzQS51IcDuC/ISLnaZPFDSmw2HRGQPEs7fYoPOo8YQS7pPAoPngSHmb+p8PVbSi1Mre73eEcA5BfLuvKLlXE73VwokhsgclK2Sezbmvu/uHRXDBvsmMF1/niR+/VKFHwHeY1zKRoDcV89d00XyG3HXm8OZf9bsdcMPyANW9OMfJD24bBjX924IAnMNwFaai/VUwUni3NTKXi8rApjB8tl7QytsdXM5MCw2zRZ9FYnpJ8ZGVcoQBAYo4v8SB7iL8OtNgiuXMhBoS1x6O0QIpVUkZkcY67teBuLG2QljB9V1K017ZK87PbZhL2+GACFreI/kTnbTijtrdMgbhWU/MiRHYzHguzoZagWeAXVyE7Po4I6oUb/rat6xC5OqjsMBFnJ8Yl+DvtGETdqnsb76zsCIQWS28LO74ydIekGLPu3aZELEagyHi5+0KJ+9yNAEZoBfaK4RMLfsIqOPfdQFnA519woPOeaMM1NGcmClypODh1pqfet6EJKUuL8t6VFLSMmVJz7KM3POHec6QFogPlh1YaAyiJRAYKxwAIF74i5C1AXerTC/dOmOAFEyuLLDO8hCzg8RWn5koawHHVxBvbRlOx+VBF7kvO5VSiAwA8Ym1uJqCPdDSDzqSISZn5CrNqaOXK90fbVZ7GYtuyR2GKe1MARZNg19nqz/f/ulEJi+8F5CulELYTV+RnO48ikLZRPSwZbyKxnGS5hh3n1/nkG3pUquOC/pqBDb7FM76mhdvSQC02nekZ7VuvfrCzIRRASx9Ck16lqxatgCEoTBWshYafXjbN23eX1nGdllY3n23ZwdnekujcD0C6eFVxgOnvcTVmO/bloPamr4o01TxYkz2RdKf/dli0/wCQt5U/C6stC1VkeJBKbDWM1YGrij82Uhc/t/ZUe1vgZwOGD1SQm6sGm0NUTC2D5cDRGI0Uo4meY8JquUSuBcJP6qJO783poV1fqU4+WF00EOuVdzX/yuHIoNdabk89rUPM/YKvPNTXVb//+SCZyLxOj1APJbPiLYJHMNYi04KnS947fu0zJ91vG3aKOX7IilE3hGYt6JYyNbrpv4IWxx+3gQU9vg5JkTaGupxc74HzPlUNqu2fFdag3qvL4aCEx/MdnjdBpXQgvxhOKXoZjr6ogWsGTi3bp0+aak62XoJFdn52TQ+0uVtRB41uEuYXlq/OHKOfcz3bkI/LVMq7o1Jl2DTKzrD4nVOHfJJrURGCCIefTCkLw5BRhPJr41ajm20BgzYNRQuvAsEenFWn7YHAxey1rpor4aCTwbA3a6RyQA5O+/W4OW4xCLO9XHJcxP31U+F5wVrNv9UHCSsNa7hb6aCcxAMDbH6DxGur7/7tLcGR4SnCY+03ixfD+m8ULL5rhGIlC7pUFODuju0OzozsyhONgd4OGUVWoncIrpX+qYfzVYdC2Gt/1Wc4IJkfngCcUveo4EXaseBIKbc1gy/+FHBt/btoIhB/mcr9C2woZyOJXgpgcmJcszJR2dqYO9pMlNfZgzjTlK7eUl/XdUDSnl/RfvFEwxY3PM4ucMkfmwSl+45LPJuH/b5n0fKyGu0GbfRMGAcHzjo7tMbicJE9IYwYPrMTEV1pQl88JrjHTlVJOShL5Nf7hTf22bgl3L1ExgQrm8MxKAmPdfnLcpnzMW9Y/nyM2P0SJZU1dEsh9gjxsrHLxcM7bSQnk8wYjWUbqkPD9txvS2xtGfcLq9SM0ExrY5Nrp+m/dfVjuIm3JA1suktWiEkK7Pb1FusYjFQ82u4acJbfddhRSmmHlaykXNucx81A5L3Ut11UxgIjzsFonQuvHiyM5W+fGROkssflzC4d5sHGzPiTEWa9hP4jACM2S99zQC2+KHarErON+QZaJXqZXARN7f9P64CCTvvxiXLx7ubBOIW21o0SVPDKsLkSK7CDsQTCHBep0wD1zpYU9ci1iuvhiscBg2yIl7rQTm4eRdK0WODZkhcCtkxX1KipLC6/AjxUl0VyG/EIYznKjyma3KrLIE5/9EMJVcDIxOZAtwJjTNxyRhqliKdF19OWFn7MQkZ/x8OMsYRGolMNEdCMHjshqBHGZ8ROvgsK3NNnnewwcSn9BjJoZ1z0Xs6ssPPSf63Be/p7EuYydXjNRKYFy1YpM7FwN6Tx3BwIV34aEEG2tWqXkngQ+EPhEPfAjByf7pLRvmB4cdxBmSOJ0vUmokMIdNRQTVLnJGL+sUWffYLg4pBAlYdg1H0rO+35nbkpeInKSyrcGLqqiolG0ftPt5RI1WUP1nphA5rRoPhbAOW7Xl5Bowu6lh6EebOGucqdAni/DGMRh1KlvjCpxy/9sJpIorE+MKIg8pJwXb8WV9eGO4tsuZaoWIIO9fk6OYfmGB1jaI+5BYbtV2jQQmncUqE8I+weUkcpYWhnxBq5JY99WnL4U0mWS54IyAbz5Dv24ctCEmFifmx4fVL0fkynX5tziM46yg9JhdK5+h2giMqeF/9MWIFe1AXCy1+J4XTBD5tYfMfGZ/r8sQnzoUyDq7wiBoOoSNcV5IbTe13lPDld26+hjmsLuCzLF3/Kv0ktMI55JlwqoMeXMmGE/Fq3W92gg85PvvKuJuAht7Zn54Zp+ZY8L8v/E3c0Ew+mUf4irN/3usE8emPvbx/9dtpefb5wcJImPL3XVFxtMII4tFIdQt5B369aIz7rUROMX/tytIqcTt2u7Y6t8gpBxpG6WS92LubHFYSd3iLmZa4C739ZJeORZwayMw/qV79gQ+Wyx+vRe3yj01P8pmCLFzSsLI2OZCZj5tr3ewGuO1gu04J8wcmMV6ryV0td8qNRGYd8w+LtRJwUKaESdunmeRwPopnlKz3mB7DKHxs+abs4BlSeywe8f77C2Szs4zlOG11kRg0l3mtOBhZTjGidvLQ3lusxrubdQSp+zM22KSbfJOX2DURrFqaiIwnjFHZUCSbRneNL7iZgB3hUrLVLKzJliFcbzoevDVHwoGLdVEYCId3NdgzDMVrOYcijlxDUGNUGW5Cs83e+0QuiiiK/UWrYnA2KcebgA170RcUzhxDcDsoCLHKkx3OOQiI8QkpCYCd005eqIk7v+cuOU82rlWYX4c8CYavdREYCYjZcLJRMhkEmjbpSwECKiAlZa1YPRCZM7Sw9p2HndtBI5ZhQlrCnHb3ht2BtMVRCNAlI9c80O6FA4nRy21EZjJgMTcI65Kh0lsIj5FRU4Y9VPUbXCYTt68m4qltTnrIIPGqKVGAjMhkBeDAMiMPSuG8FwHsU3mYt+lHgSencm5nzhcmG+OWmol8KgnZWKDY/VlFc4hhB0m3O1oxQk82qmtamDfzuRP7QSu6jHwztaKANEe727ced9CGwPq6hyBVQjkMJP1Qyx/3hyBnhA4NIOPrl8j9TR53owjQKpUYkiTGM1CuJnYN+RrttBXrA4/xCp2aibXsbZxm9sAc6Qk8h2PXpzAo5/iqgZIjiVW4y4yicOrGUBO4C6Pite1RmCHJi8zycO6CIECFpOtddFXdF0ncNHTM8nO7RTyE+8XOXqSaz+0QwC8yObKKO4ELmMevBdbI/BwSS+StN0GcAixSxI38hlPTpzAk5vyqga8V2PffueE/MRVDbJLZ53AXdDzun0jEJOfuO++DdKeE3gQ2L1RR8AGASewDY6uxREYBAEn8CCwe6OOgA0CTmAbHF2LIzAIAk7gQWD3Rh0BGwScwDY4uhZHYBAEnMCDwO6NOgI2CDiBbXB0LY7AIAg4gQeB3Rt1BGwQcALb4OhaHIFBEHACDwK7N+oI2CDgBLbB0bU4AoMg4AQeBHZv1BGwQcAJbIOja3EEBkHACTwI7N6oI2CDgBPYBkfX4ggMgoATeBDYvVFHwAYBJ7ANjq7FERgEASfwILB7o46ADQJOYBscXYsjMAgCTuBBYPdGHQEbBP4PpEqa9iTc2LkAAAAASUVORK5CYII=;" parent="nVbXTicEFVuqo1gQbMPG-10" vertex="1">
          <mxGeometry x="82" y="115" width="36" height="30" as="geometry" />
        </mxCell>
        <mxCell id="nVbXTicEFVuqo1gQbMPG-23" value="" style="shape=flexArrow;endArrow=classic;html=1;rounded=0;entryX=0;entryY=0.5;entryDx=0;entryDy=0;fillColor=#60a917;strokeColor=#2D7600;" parent="nVbXTicEFVuqo1gQbMPG-2" source="nVbXTicEFVuqo1gQbMPG-5" target="nVbXTicEFVuqo1gQbMPG-9" edge="1">
          <mxGeometry width="50" height="50" relative="1" as="geometry">
            <mxPoint x="260" y="230" as="sourcePoint" />
            <mxPoint x="310" y="180" as="targetPoint" />
          </mxGeometry>
        </mxCell>
        <mxCell id="nVbXTicEFVuqo1gQbMPG-24" value="&lt;b&gt;&lt;font style=&quot;font-size: 16px;&quot;&gt;自动迁移&lt;/font&gt;&lt;/b&gt;" style="text;html=1;align=center;verticalAlign=middle;resizable=0;points=[];autosize=1;strokeColor=none;fillColor=none;rotation=-20;" parent="nVbXTicEFVuqo1gQbMPG-2" vertex="1">
          <mxGeometry x="280" y="150" width="90" height="30" as="geometry" />
        </mxCell>
        <mxCell id="nVbXTicEFVuqo1gQbMPG-26" style="edgeStyle=orthogonalEdgeStyle;rounded=0;orthogonalLoop=1;jettySize=auto;html=1;" parent="nVbXTicEFVuqo1gQbMPG-2" source="nVbXTicEFVuqo1gQbMPG-25" edge="1">
          <mxGeometry relative="1" as="geometry">
            <mxPoint x="180" y="140" as="targetPoint" />
            <Array as="points">
              <mxPoint x="181" y="69" />
            </Array>
          </mxGeometry>
        </mxCell>
        <mxCell id="nVbXTicEFVuqo1gQbMPG-25" value="" style="sketch=0;pointerEvents=1;shadow=0;dashed=0;html=1;strokeColor=none;fillColor=#505050;labelPosition=center;verticalLabelPosition=bottom;verticalAlign=top;outlineConnect=0;align=center;shape=mxgraph.office.servers.web_server;" parent="nVbXTicEFVuqo1gQbMPG-2" vertex="1">
          <mxGeometry x="50" y="40" width="48" height="57" as="geometry" />
        </mxCell>
        <mxCell id="nVbXTicEFVuqo1gQbMPG-27" value="切换沙盒指令" style="text;html=1;align=center;verticalAlign=middle;resizable=0;points=[];autosize=1;strokeColor=none;fillColor=none;" parent="nVbXTicEFVuqo1gQbMPG-2" vertex="1">
          <mxGeometry x="85" y="40" width="100" height="30" as="geometry" />
        </mxCell>
        <mxCell id="nVbXTicEFVuqo1gQbMPG-4" value="" style="sketch=0;pointerEvents=1;shadow=0;dashed=0;html=1;strokeColor=none;fillColor=#505050;labelPosition=center;verticalLabelPosition=bottom;verticalAlign=top;outlineConnect=0;align=center;shape=mxgraph.office.devices.workstation_pc;" parent="1" vertex="1">
          <mxGeometry x="361" y="180" width="53" height="59" as="geometry" />
        </mxCell>
      </root>
    </mxGraphModel>
  </diagram>
  <diagram id="jCDnr_h7L4oxQ0sr8YVm" name="第 2 页">
    <mxGraphModel dx="2261" dy="746" grid="1" gridSize="10" guides="1" tooltips="1" connect="1" arrows="1" fold="1" page="1" pageScale="1" pageWidth="827" pageHeight="1169" math="0" shadow="0">
      <root>
        <mxCell id="0" />
        <mxCell id="1" parent="0" />
        <mxCell id="OEQvsh9jKtCIjXLcF72v-1" value="云桌面1" style="swimlane;whiteSpace=wrap;html=1;startSize=23;fillColor=#b1ddf0;strokeColor=#10739e;labelBorderColor=none;fontSize=15;" vertex="1" parent="1">
          <mxGeometry x="-346" y="230" width="760" height="500" as="geometry" />
        </mxCell>
        <mxCell id="OEQvsh9jKtCIjXLcF72v-2" value="原桌面登录的企微" style="swimlane;whiteSpace=wrap;html=1;fillColor=#d5e8d4;strokeColor=#82b366;" vertex="1" parent="OEQvsh9jKtCIjXLcF72v-1">
          <mxGeometry x="60" y="150" width="200" height="200" as="geometry" />
        </mxCell>
        <mxCell id="OEQvsh9jKtCIjXLcF72v-3" value="企微A" style="sketch=0;outlineConnect=0;fontColor=#232F3E;gradientColor=none;strokeColor=#232F3E;fillColor=#ffffff;dashed=0;verticalLabelPosition=bottom;verticalAlign=top;align=center;html=1;fontSize=12;fontStyle=0;aspect=fixed;shape=mxgraph.aws4.resourceIcon;resIcon=mxgraph.aws4.traditional_server;" vertex="1" parent="OEQvsh9jKtCIjXLcF72v-2">
          <mxGeometry x="39" y="40" width="130" height="130" as="geometry" />
        </mxCell>
        <mxCell id="OEQvsh9jKtCIjXLcF72v-4" value="" style="shape=image;verticalLabelPosition=bottom;labelBackgroundColor=default;verticalAlign=top;aspect=fixed;imageAspect=0;image=data:image/png,iVBORw0KGgoAAAANSUhEUgAAAPAAAADICAYAAADWfGxSAAAAAXNSR0IArs4c6QAAGWxJREFUeF7tnQn4fUVZx78uuCCIIiqlIhlmCoJKgoKaC6KGGm6YmZaUGmgJLqTiUuaOG0aS4b6EuISmIuCCuCAJ7komiWuuKJjgUracT89cuf/7v8uZOe+cM3PO+z7Pfe6PPzPvzHznfO/MmXmXy8nFEXAEqkXgctX23DvuCDgCcgL7Q+AIVIyAE7jiyfOuOwJOYH8GHIGKEXACVzx53nVHwAnsz4AjUDECTuCKJ8+77gg4gf0ZcAQqRsAJXPHkedcdASewPwOOQMUIOIErnjzvuiPgBPZnwBGoGAEncMWT5113BJzA/gw4AhUj4ASuePK8646AE9ifAUegYgScwP1N3naSdgifayz5/l9JF0u6aOF79m+/6K+r3lItCDiB7WZqZ0m7zn1uuPDfV+nY1A8kfUvSt5d8f1XSpyT9T8c2vHplCDiB0yZsR0m3kbRv+Obvq6epMqsFec8Jn09L+lz4/NSsBVdUHAJO4HZT8huS9pd0a0n7SNq7XbXBS10q6TOS3ifpdEkfHbxH3gFTBJzAq+GErHeVdICkO5miPpwyyHxaIPP7h+uGt2yFgBN4SyRnhOX7llYgF6rnXwOZ3xlW6EK76d1ah4ATWNqzeVe8n6T7S7rZRB+Xc5sfrHdIenuDw+cnikGVw54qgTkRnpH24CpnLl+n3zVH5gvzNeOaLRCYGoE5fDokrLY3sgBwxDq4sjpB0svD1dWIh1rv0KZC4N0lHRY+l693ugbpuRN5ENjbNTp2Au82R9yrtoPES61AwIlc4KMxVgJff4641ywQ95q7BJFfKumFkty8c+CZHCOBHyvpCZIwbXTJhwBWXy9oTu7fnK8J17wJgTER+HbNivAUSXfbNOjM///nkr4p6Rvhe/5v7JkxbVz2oVvbhg/b/dnffO8iCdtqPrO/+e5qX20BBQSGyBDapWcExkDgK0k6OpB3iAOqC4KJImaKfPq8R8XEk5P1+c/2PT9DNMdWmi31syT9eID2J9tk7QQ+KBAXZ4K+5PzGgeHUxrzyTElnFXjFAqnB4w6Sbi+J/+5L/lnSEyV9sK8Gp95OzQR+fnjXzT2HbHs/HD6nSPpi7gaN9d84OGLs1/zgHBi24cZNbKGO1RgSsyK7ZEagRgKzoryoeedi9c0lPIRvCh+M/n+Wq6Ge9RJU4IHBmAUy55QTA5G/nrORqeuujcC/20SyeLGkX8s0cayuJwXi1rbSxkLCod+MzNeJrdyy/JcCiU9uWd6LRSJQE4GfJOnZkeNrW/zdcyvu1O42uW57aPhgsZZDnibpr3MonrrOGgh8xea97dWS/iDDZOFK9/eSMOCfumwTSPyH4fDLGg+um1jxXQwRKJ3AvLO9UdK9DceMKifuekDx0HqEpHsY435eiGryE2O9k1VXMoGvLYl3J0LZWAkHUi/xFbc1nOx6/jyQrnWlFgVvFYLwtSjqRdYhUCqBb9Csup+UtJPR9H2/sVp6bji9NlI5GTUYx0BiPpaHhzeRxCGXSwcESiQwE2t5AvxaSc+RRAgZl3QEOKnG4g0iWwk/1JiauiQiUBqB2S5/JHEsi9UI4MaptRvbGwEa1DxA0jOaU/vfNFD7HUl7SMJYxiUBgZIIvJck4hlbyGsah4G/kPQ9C2WuYysEfiWQ+E8MsDlD0r0aqzpC4LpEIlAKgQlv8y/NioljQhfBE+io4K/aRY/XbYcAV04cCpIqposQTI8YZZ5ZIhLFEgjMuxVG8KQl6SJnB/Jit+zSHwLYWP9tE9HyFh2bZNf0sI46Jld9aALj98rVzm07Iv+qJinYYyRd0lGPV09D4HrNjcFxzStQ1wifuCPi0+3SEoGhCfzWsHVq2d2lxf5S0l91UeB1zRDATv2IjtoOl3R8Rx2TqT4kgQl7g0tgFzk0mFl20eF1bRHgB/XpHVXitPJPHXVMovpQBMYThq1zl0MrTi7dhrnMx7QriUmhyvx+oszhldOrIQiMZQ/kvWMHGMhdRMY9l3IRwODj2A7d+0ATROEuHepPouoQBMa4AtfAVHm4pFekVvZ6vSJwz+A4ktookT2el1p5CvX6JnDXCeWwiu2ZSz0IkDTuLYndJUAesb2sDHwSu1FutT4JjF8v9714oqSIkzcFtTLqPF7SMYld4aYC802XJQj0SeAjO3gDOXnrf3xJlJZqeolvMvVdFhDoi8D49rL6prijEe6GrbdL3QhcPYTjTTHa+ZokLL5I6+Iyh0BfBMZ75akJyH+38U46oOdg6Qnd9CotEeDmAeeFFHErrYG20ISBxU45JckYtrHYyLqMB4HUO+IfStpH0pfHA0X3kfSxApPJ7s8SuoqB/KMT6nmV8hFgFU6xAyAe+OPKH15/PcxN4D0l4VgfK0TPwFrrwtiKXr4KBFK30iSFYxXuM/9U0YDmJnBq+pM/brLw4WHkMl4EUrfSL5P0qPHCEjeynATm5JnVl+gNMYIRO8bsLuNGgDORj0kiBlqs3NQ4blps+8WUz0ng1Htfts6k6XQZPwKHSWJFjZUnh0CFsfVGVz4ngfEkibW6YstNLCuX6SDwoYRMEB+XtO90IFo90lwE/r1ma0R2uhjhmoCwLGS2d5kOAsTCwlwyVrAPwKtt0pKLwPjpxqb/JDga226X6SFA3uXYNC5+zdiEoslBYOIjYfp2hcjn0NNtRAI2ouIpHkv/3qSC5TALj6XJSg4CP0TS6yIRJYFZjuyDkd3w4gMicGZwHYzpwoNCWtiYOqMqm4PApDIh32yM3K0xVj89poKXHR0CxJiONZslNewjR4dExICsCUy4nIslbR/RB7yUbhNR3ouOF4FzmjhnvxUxvPMlYWs/WbEmMLGqYldS9/Wd7OO31cBJQkcYnRiZ9NmJNYG5lOdyPkZYfVmFXRyBA5sg/6dFwoDdQNfwxJFNllPcmsDkN4rJWvdvkm5cDhzekwIQIKTszhH9eK8kiD9JsSTwlZvtz88iUXT3sEjAJlD8DZIeHDlOy+c4sulhi1sOHDev2K3wnRq/0A8OC4G3XhgCKXfCu0s6r7Bx9NIdSwITeOzlkb3esUlKdlFkHS8+bgRINRsbdeOQDqFrq0bTksCYtpGYqq1g87xL28JebjIIbBOsq3glayuTvcmwJPBHJO3fFnFJHm0yAqyJFSWQ+14RYyZwPKvw5MSSwNikbheBIClWjo4o70Wng0Bs2tkvNB5Ne0wHnstGakVgYv7+KBJAXA5PiqzjxaeBALcT5MAirPDs8wNJuJxi7Xfd8OG6afa31bNcFcJWgyZg+wWRI2e7fVZkHS/uCDgCcwhYERj7VexYY4R3nM/GVPCyjoAjsCUCVgTGm+jUSHB3S7guiGzCizsC40bAisC/35hE4tMbI7y/8H7j4gg4AokIWBGYzAtkYIgRXA4viangZR0BRyDPFjolSLfVj4fPqSMwWQSsSPSnzXH+8ZEoEvjdU6dEgubFHYF5BKwIfHBjOXNyJLS4HZIDycURcAQSEbAiME75pMmIEc/AEIOWl3UEliBgReBdJX0lEmHyH5EHycURcAQSEbAi8FWalCikfowRz0AYg5aXdQQyrsCoxq/3GhEoTzqWUQROXvQyBAhgR9IA7KJdjDMzxMbDerWkQ30WHIE1CGDhd9sQdphvnGYQ3A1xXyWB3numbBBktYUG1DOa8DhkXm8rHtCuLVLTLIe76ZNaDP3rko6TdEyLsqMrYkngZyb49/56ghfT6CbBB7QFAvuF0LIxvuUo+HyITklUy8mIJYHvHrYzMeCRguX1MRW87KgRSElLuwiI5TNdPNiWg71OwrsIQfCw4nJxBLaVdKkBDMc26X2OMNBThQpLAjPg2FhGbHtuXgVS3sncCLxD0r2NGplMuGJrAmMPHbuiemoVo6e2YjXcRrzSsP/EGofEoxdrAhPHiJSPMTLZkKAxII28LOS1vlLcV9LHR46brAnMRTt3czHi6UVj0BpnWezorVPMPloSscpHLdYEBiw8jGJztvo2etSP2cbBYYaLOa6lvK6xzydp+KglB4EJCXpkJGq+jY4EbETFcSvFis9avtiELb6ptdLS9OUg8F0kvS9yoL6NjgRsRMVzERiIbhluRkYE15ZDyUFgWiBcbOz10EGSThkt0j6wdQjk2ELTHjvBl4wZ+lwEfk6TK/iJkcC9rTGHI7Wky/QQyHGIBYpvl3SfMcOZi8BE2/hwAnB3Dk4RCVW9SsUI5LhGAo6LJZE1hO9RSi4CAxZ3cLeORI3s7A+JrOPF60fgjyThXppDWIFZiUcpOQmcEmoWkPH7PHuUaPug1iFAYgASBFgLhkWPtFZair6cBL5+Y9v6yeYynfCxMXKCpEfEVPCyo0HgewnPS5vBk7sr1sCojd7By+QkMINLOcyi3qi3PYPPerkd4N72vAzdG+0qnJvAOOyzCs9CobSdG7yaMEYf7eFDWyAmWI64akQrvb3x2Ee5CucmMHOQYplFPe7vYi26jOfc1Q2IAOF0CKtjJaNchfsg8M3CKnzlhJnwrXQCaBVVuWFwP91JEp5si3JXSXuEz+7h+2odxvc7CVFjOjSXv2ofBGYUeIUcnjAc30ongFZBlYeFE+cDQl9xOsD5oI3sHxz/SQxwkzYV5sp8uUlEj8XfaFL69EXgFDfDGe4nZrpeiJx7L26AAFeLD1rirXajhMwedAef33s0147EY+PvNvLexkaBlfgXbQqXXqYvAoMDHkdPSwTkVZLI5OBSJwI7SPqbFUY63Plz999V7ttku8QHuE0kjr9r4rcd1rXBEur3SeArNnGjCXXCFihF2IYzQS51IcDuC/ISLnaZPFDSmw2HRGQPEs7fYoPOo8YQS7pPAoPngSHmb+p8PVbSi1Mre73eEcA5BfLuvKLlXE73VwokhsgclK2Sezbmvu/uHRXDBvsmMF1/niR+/VKFHwHeY1zKRoDcV89d00XyG3HXm8OZf9bsdcMPyANW9OMfJD24bBjX924IAnMNwFaai/VUwUni3NTKXi8rApjB8tl7QytsdXM5MCw2zRZ9FYnpJ8ZGVcoQBAYo4v8SB7iL8OtNgiuXMhBoS1x6O0QIpVUkZkcY67teBuLG2QljB9V1K017ZK87PbZhL2+GACFreI/kTnbTijtrdMgbhWU/MiRHYzHguzoZagWeAXVyE7Po4I6oUb/rat6xC5OqjsMBFnJ8Yl+DvtGETdqnsb76zsCIQWS28LO74ydIekGLPu3aZELEagyHi5+0KJ+9yNAEZoBfaK4RMLfsIqOPfdQFnA519woPOeaMM1NGcmClypODh1pqfet6EJKUuL8t6VFLSMmVJz7KM3POHec6QFogPlh1YaAyiJRAYKxwAIF74i5C1AXerTC/dOmOAFEyuLLDO8hCzg8RWn5koawHHVxBvbRlOx+VBF7kvO5VSiAwA8Ym1uJqCPdDSDzqSISZn5CrNqaOXK90fbVZ7GYtuyR2GKe1MARZNg19nqz/f/ulEJi+8F5CulELYTV+RnO48ikLZRPSwZbyKxnGS5hh3n1/nkG3pUquOC/pqBDb7FM76mhdvSQC02nekZ7VuvfrCzIRRASx9Ck16lqxatgCEoTBWshYafXjbN23eX1nGdllY3n23ZwdnekujcD0C6eFVxgOnvcTVmO/bloPamr4o01TxYkz2RdKf/dli0/wCQt5U/C6stC1VkeJBKbDWM1YGrij82Uhc/t/ZUe1vgZwOGD1SQm6sGm0NUTC2D5cDRGI0Uo4meY8JquUSuBcJP6qJO783poV1fqU4+WF00EOuVdzX/yuHIoNdabk89rUPM/YKvPNTXVb//+SCZyLxOj1APJbPiLYJHMNYi04KnS947fu0zJ91vG3aKOX7IilE3hGYt6JYyNbrpv4IWxx+3gQU9vg5JkTaGupxc74HzPlUNqu2fFdag3qvL4aCEx/MdnjdBpXQgvxhOKXoZjr6ogWsGTi3bp0+aak62XoJFdn52TQ+0uVtRB41uEuYXlq/OHKOfcz3bkI/LVMq7o1Jl2DTKzrD4nVOHfJJrURGCCIefTCkLw5BRhPJr41ajm20BgzYNRQuvAsEenFWn7YHAxey1rpor4aCTwbA3a6RyQA5O+/W4OW4xCLO9XHJcxP31U+F5wVrNv9UHCSsNa7hb6aCcxAMDbH6DxGur7/7tLcGR4SnCY+03ixfD+m8ULL5rhGIlC7pUFODuju0OzozsyhONgd4OGUVWoncIrpX+qYfzVYdC2Gt/1Wc4IJkfngCcUveo4EXaseBIKbc1gy/+FHBt/btoIhB/mcr9C2woZyOJXgpgcmJcszJR2dqYO9pMlNfZgzjTlK7eUl/XdUDSnl/RfvFEwxY3PM4ucMkfmwSl+45LPJuH/b5n0fKyGu0GbfRMGAcHzjo7tMbicJE9IYwYPrMTEV1pQl88JrjHTlVJOShL5Nf7hTf22bgl3L1ExgQrm8MxKAmPdfnLcpnzMW9Y/nyM2P0SJZU1dEsh9gjxsrHLxcM7bSQnk8wYjWUbqkPD9txvS2xtGfcLq9SM0ExrY5Nrp+m/dfVjuIm3JA1suktWiEkK7Pb1FusYjFQ82u4acJbfddhRSmmHlaykXNucx81A5L3Ut11UxgIjzsFonQuvHiyM5W+fGROkssflzC4d5sHGzPiTEWa9hP4jACM2S99zQC2+KHarErON+QZaJXqZXARN7f9P64CCTvvxiXLx7ubBOIW21o0SVPDKsLkSK7CDsQTCHBep0wD1zpYU9ci1iuvhiscBg2yIl7rQTm4eRdK0WODZkhcCtkxX1KipLC6/AjxUl0VyG/EIYznKjyma3KrLIE5/9EMJVcDIxOZAtwJjTNxyRhqliKdF19OWFn7MQkZ/x8OMsYRGolMNEdCMHjshqBHGZ8ROvgsK3NNnnewwcSn9BjJoZ1z0Xs6ssPPSf63Be/p7EuYydXjNRKYFy1YpM7FwN6Tx3BwIV34aEEG2tWqXkngQ+EPhEPfAjByf7pLRvmB4cdxBmSOJ0vUmokMIdNRQTVLnJGL+sUWffYLg4pBAlYdg1H0rO+35nbkpeInKSyrcGLqqiolG0ftPt5RI1WUP1nphA5rRoPhbAOW7Xl5Bowu6lh6EebOGucqdAni/DGMRh1KlvjCpxy/9sJpIorE+MKIg8pJwXb8WV9eGO4tsuZaoWIIO9fk6OYfmGB1jaI+5BYbtV2jQQmncUqE8I+weUkcpYWhnxBq5JY99WnL4U0mWS54IyAbz5Dv24ctCEmFifmx4fVL0fkynX5tziM46yg9JhdK5+h2giMqeF/9MWIFe1AXCy1+J4XTBD5tYfMfGZ/r8sQnzoUyDq7wiBoOoSNcV5IbTe13lPDld26+hjmsLuCzLF3/Kv0ktMI55JlwqoMeXMmGE/Fq3W92gg85PvvKuJuAht7Zn54Zp+ZY8L8v/E3c0Ew+mUf4irN/3usE8emPvbx/9dtpefb5wcJImPL3XVFxtMII4tFIdQt5B369aIz7rUROMX/tytIqcTt2u7Y6t8gpBxpG6WS92LubHFYSd3iLmZa4C739ZJeORZwayMw/qV79gQ+Wyx+vRe3yj01P8pmCLFzSsLI2OZCZj5tr3ewGuO1gu04J8wcmMV6ryV0td8qNRGYd8w+LtRJwUKaESdunmeRwPopnlKz3mB7DKHxs+abs4BlSeywe8f77C2Szs4zlOG11kRg0l3mtOBhZTjGidvLQ3lusxrubdQSp+zM22KSbfJOX2DURrFqaiIwnjFHZUCSbRneNL7iZgB3hUrLVLKzJliFcbzoevDVHwoGLdVEYCId3NdgzDMVrOYcijlxDUGNUGW5Cs83e+0QuiiiK/UWrYnA2KcebgA170RcUzhxDcDsoCLHKkx3OOQiI8QkpCYCd005eqIk7v+cuOU82rlWYX4c8CYavdREYCYjZcLJRMhkEmjbpSwECKiAlZa1YPRCZM7Sw9p2HndtBI5ZhQlrCnHb3ht2BtMVRCNAlI9c80O6FA4nRy21EZjJgMTcI65Kh0lsIj5FRU4Y9VPUbXCYTt68m4qltTnrIIPGqKVGAjMhkBeDAMiMPSuG8FwHsU3mYt+lHgSencm5nzhcmG+OWmol8KgnZWKDY/VlFc4hhB0m3O1oxQk82qmtamDfzuRP7QSu6jHwztaKANEe727ced9CGwPq6hyBVQjkMJP1Qyx/3hyBnhA4NIOPrl8j9TR53owjQKpUYkiTGM1CuJnYN+RrttBXrA4/xCp2aibXsbZxm9sAc6Qk8h2PXpzAo5/iqgZIjiVW4y4yicOrGUBO4C6Pite1RmCHJi8zycO6CIECFpOtddFXdF0ncNHTM8nO7RTyE+8XOXqSaz+0QwC8yObKKO4ELmMevBdbI/BwSS+StN0GcAixSxI38hlPTpzAk5vyqga8V2PffueE/MRVDbJLZ53AXdDzun0jEJOfuO++DdKeE3gQ2L1RR8AGASewDY6uxREYBAEn8CCwe6OOgA0CTmAbHF2LIzAIAk7gQWD3Rh0BGwScwDY4uhZHYBAEnMCDwO6NOgI2CDiBbXB0LY7AIAg4gQeB3Rt1BGwQcALb4OhaHIFBEHACDwK7N+oI2CDgBLbB0bU4AoMg4AQeBHZv1BGwQcAJbIOja3EEBkHACTwI7N6oI2CDgBPYBkfX4ggMgoATeBDYvVFHwAYBJ7ANjq7FERgEASfwILB7o46ADQJOYBscXYsjMAgCTuBBYPdGHQEbBP4PpEqa9iTc2LkAAAAASUVORK5CYII=;" vertex="1" parent="OEQvsh9jKtCIjXLcF72v-2">
          <mxGeometry x="86" y="110" width="36" height="30" as="geometry" />
        </mxCell>
        <mxCell id="OEQvsh9jKtCIjXLcF72v-5" value="沙盒1" style="swimlane;whiteSpace=wrap;html=1;startSize=23;" vertex="1" parent="OEQvsh9jKtCIjXLcF72v-1">
          <mxGeometry x="450" y="40" width="200" height="200" as="geometry" />
        </mxCell>
        <mxCell id="OEQvsh9jKtCIjXLcF72v-6" value="企微A" style="sketch=0;outlineConnect=0;fontColor=#232F3E;gradientColor=none;strokeColor=#232F3E;fillColor=#ffffff;dashed=0;verticalLabelPosition=bottom;verticalAlign=top;align=center;html=1;fontSize=12;fontStyle=0;aspect=fixed;shape=mxgraph.aws4.resourceIcon;resIcon=mxgraph.aws4.traditional_server;" vertex="1" parent="OEQvsh9jKtCIjXLcF72v-5">
          <mxGeometry x="35" y="35" width="130" height="130" as="geometry" />
        </mxCell>
        <mxCell id="OEQvsh9jKtCIjXLcF72v-7" value="" style="shape=image;verticalLabelPosition=bottom;labelBackgroundColor=default;verticalAlign=top;aspect=fixed;imageAspect=0;image=data:image/png,iVBORw0KGgoAAAANSUhEUgAAAPAAAADICAYAAADWfGxSAAAAAXNSR0IArs4c6QAAGWxJREFUeF7tnQn4fUVZx78uuCCIIiqlIhlmCoJKgoKaC6KGGm6YmZaUGmgJLqTiUuaOG0aS4b6EuISmIuCCuCAJ7komiWuuKJjgUracT89cuf/7v8uZOe+cM3PO+z7Pfe6PPzPvzHznfO/MmXmXy8nFEXAEqkXgctX23DvuCDgCcgL7Q+AIVIyAE7jiyfOuOwJOYH8GHIGKEXACVzx53nVHwAnsz4AjUDECTuCKJ8+77gg4gf0ZcAQqRsAJXPHkedcdASewPwOOQMUIOIErnjzvuiPgBPZnwBGoGAEncMWT5113BJzA/gw4AhUj4ASuePK8646AE9ifAUegYgScwP1N3naSdgifayz5/l9JF0u6aOF79m+/6K+r3lItCDiB7WZqZ0m7zn1uuPDfV+nY1A8kfUvSt5d8f1XSpyT9T8c2vHplCDiB0yZsR0m3kbRv+Obvq6epMqsFec8Jn09L+lz4/NSsBVdUHAJO4HZT8huS9pd0a0n7SNq7XbXBS10q6TOS3ifpdEkfHbxH3gFTBJzAq+GErHeVdICkO5miPpwyyHxaIPP7h+uGt2yFgBN4SyRnhOX7llYgF6rnXwOZ3xlW6EK76d1ah4ATWNqzeVe8n6T7S7rZRB+Xc5sfrHdIenuDw+cnikGVw54qgTkRnpH24CpnLl+n3zVH5gvzNeOaLRCYGoE5fDokrLY3sgBwxDq4sjpB0svD1dWIh1rv0KZC4N0lHRY+l693ugbpuRN5ENjbNTp2Au82R9yrtoPES61AwIlc4KMxVgJff4641ywQ95q7BJFfKumFkty8c+CZHCOBHyvpCZIwbXTJhwBWXy9oTu7fnK8J17wJgTER+HbNivAUSXfbNOjM///nkr4p6Rvhe/5v7JkxbVz2oVvbhg/b/dnffO8iCdtqPrO/+e5qX20BBQSGyBDapWcExkDgK0k6OpB3iAOqC4KJImaKfPq8R8XEk5P1+c/2PT9DNMdWmi31syT9eID2J9tk7QQ+KBAXZ4K+5PzGgeHUxrzyTElnFXjFAqnB4w6Sbi+J/+5L/lnSEyV9sK8Gp95OzQR+fnjXzT2HbHs/HD6nSPpi7gaN9d84OGLs1/zgHBi24cZNbKGO1RgSsyK7ZEagRgKzoryoeedi9c0lPIRvCh+M/n+Wq6Ge9RJU4IHBmAUy55QTA5G/nrORqeuujcC/20SyeLGkX8s0cayuJwXi1rbSxkLCod+MzNeJrdyy/JcCiU9uWd6LRSJQE4GfJOnZkeNrW/zdcyvu1O42uW57aPhgsZZDnibpr3MonrrOGgh8xea97dWS/iDDZOFK9/eSMOCfumwTSPyH4fDLGg+um1jxXQwRKJ3AvLO9UdK9DceMKifuekDx0HqEpHsY435eiGryE2O9k1VXMoGvLYl3J0LZWAkHUi/xFbc1nOx6/jyQrnWlFgVvFYLwtSjqRdYhUCqBb9Csup+UtJPR9H2/sVp6bji9NlI5GTUYx0BiPpaHhzeRxCGXSwcESiQwE2t5AvxaSc+RRAgZl3QEOKnG4g0iWwk/1JiauiQiUBqB2S5/JHEsi9UI4MaptRvbGwEa1DxA0jOaU/vfNFD7HUl7SMJYxiUBgZIIvJck4hlbyGsah4G/kPQ9C2WuYysEfiWQ+E8MsDlD0r0aqzpC4LpEIlAKgQlv8y/NioljQhfBE+io4K/aRY/XbYcAV04cCpIqposQTI8YZZ5ZIhLFEgjMuxVG8KQl6SJnB/Jit+zSHwLYWP9tE9HyFh2bZNf0sI46Jld9aALj98rVzm07Iv+qJinYYyRd0lGPV09D4HrNjcFxzStQ1wifuCPi0+3SEoGhCfzWsHVq2d2lxf5S0l91UeB1zRDATv2IjtoOl3R8Rx2TqT4kgQl7g0tgFzk0mFl20eF1bRHgB/XpHVXitPJPHXVMovpQBMYThq1zl0MrTi7dhrnMx7QriUmhyvx+oszhldOrIQiMZQ/kvWMHGMhdRMY9l3IRwODj2A7d+0ATROEuHepPouoQBMa4AtfAVHm4pFekVvZ6vSJwz+A4ktookT2el1p5CvX6JnDXCeWwiu2ZSz0IkDTuLYndJUAesb2sDHwSu1FutT4JjF8v9714oqSIkzcFtTLqPF7SMYld4aYC802XJQj0SeAjO3gDOXnrf3xJlJZqeolvMvVdFhDoi8D49rL6prijEe6GrbdL3QhcPYTjTTHa+ZokLL5I6+Iyh0BfBMZ75akJyH+38U46oOdg6Qnd9CotEeDmAeeFFHErrYG20ISBxU45JckYtrHYyLqMB4HUO+IfStpH0pfHA0X3kfSxApPJ7s8SuoqB/KMT6nmV8hFgFU6xAyAe+OPKH15/PcxN4D0l4VgfK0TPwFrrwtiKXr4KBFK30iSFYxXuM/9U0YDmJnBq+pM/brLw4WHkMl4EUrfSL5P0qPHCEjeynATm5JnVl+gNMYIRO8bsLuNGgDORj0kiBlqs3NQ4blps+8WUz0ng1Htfts6k6XQZPwKHSWJFjZUnh0CFsfVGVz4ngfEkibW6YstNLCuX6SDwoYRMEB+XtO90IFo90lwE/r1ma0R2uhjhmoCwLGS2d5kOAsTCwlwyVrAPwKtt0pKLwPjpxqb/JDga226X6SFA3uXYNC5+zdiEoslBYOIjYfp2hcjn0NNtRAI2ouIpHkv/3qSC5TALj6XJSg4CP0TS6yIRJYFZjuyDkd3w4gMicGZwHYzpwoNCWtiYOqMqm4PApDIh32yM3K0xVj89poKXHR0CxJiONZslNewjR4dExICsCUy4nIslbR/RB7yUbhNR3ouOF4FzmjhnvxUxvPMlYWs/WbEmMLGqYldS9/Wd7OO31cBJQkcYnRiZ9NmJNYG5lOdyPkZYfVmFXRyBA5sg/6dFwoDdQNfwxJFNllPcmsDkN4rJWvdvkm5cDhzekwIQIKTszhH9eK8kiD9JsSTwlZvtz88iUXT3sEjAJlD8DZIeHDlOy+c4sulhi1sOHDev2K3wnRq/0A8OC4G3XhgCKXfCu0s6r7Bx9NIdSwITeOzlkb3esUlKdlFkHS8+bgRINRsbdeOQDqFrq0bTksCYtpGYqq1g87xL28JebjIIbBOsq3glayuTvcmwJPBHJO3fFnFJHm0yAqyJFSWQ+14RYyZwPKvw5MSSwNikbheBIClWjo4o70Wng0Bs2tkvNB5Ne0wHnstGakVgYv7+KBJAXA5PiqzjxaeBALcT5MAirPDs8wNJuJxi7Xfd8OG6afa31bNcFcJWgyZg+wWRI2e7fVZkHS/uCDgCcwhYERj7VexYY4R3nM/GVPCyjoAjsCUCVgTGm+jUSHB3S7guiGzCizsC40bAisC/35hE4tMbI7y/8H7j4gg4AokIWBGYzAtkYIgRXA4viangZR0BRyDPFjolSLfVj4fPqSMwWQSsSPSnzXH+8ZEoEvjdU6dEgubFHYF5BKwIfHBjOXNyJLS4HZIDycURcAQSEbAiME75pMmIEc/AEIOWl3UEliBgReBdJX0lEmHyH5EHycURcAQSEbAi8FWalCikfowRz0AYg5aXdQQyrsCoxq/3GhEoTzqWUQROXvQyBAhgR9IA7KJdjDMzxMbDerWkQ30WHIE1CGDhd9sQdphvnGYQ3A1xXyWB3numbBBktYUG1DOa8DhkXm8rHtCuLVLTLIe76ZNaDP3rko6TdEyLsqMrYkngZyb49/56ghfT6CbBB7QFAvuF0LIxvuUo+HyITklUy8mIJYHvHrYzMeCRguX1MRW87KgRSElLuwiI5TNdPNiWg71OwrsIQfCw4nJxBLaVdKkBDMc26X2OMNBThQpLAjPg2FhGbHtuXgVS3sncCLxD0r2NGplMuGJrAmMPHbuiemoVo6e2YjXcRrzSsP/EGofEoxdrAhPHiJSPMTLZkKAxII28LOS1vlLcV9LHR46brAnMRTt3czHi6UVj0BpnWezorVPMPloSscpHLdYEBiw8jGJztvo2etSP2cbBYYaLOa6lvK6xzydp+KglB4EJCXpkJGq+jY4EbETFcSvFis9avtiELb6ptdLS9OUg8F0kvS9yoL6NjgRsRMVzERiIbhluRkYE15ZDyUFgWiBcbOz10EGSThkt0j6wdQjk2ELTHjvBl4wZ+lwEfk6TK/iJkcC9rTGHI7Wky/QQyHGIBYpvl3SfMcOZi8BE2/hwAnB3Dk4RCVW9SsUI5LhGAo6LJZE1hO9RSi4CAxZ3cLeORI3s7A+JrOPF60fgjyThXppDWIFZiUcpOQmcEmoWkPH7PHuUaPug1iFAYgASBFgLhkWPtFZair6cBL5+Y9v6yeYynfCxMXKCpEfEVPCyo0HgewnPS5vBk7sr1sCojd7By+QkMINLOcyi3qi3PYPPerkd4N72vAzdG+0qnJvAOOyzCs9CobSdG7yaMEYf7eFDWyAmWI64akQrvb3x2Ee5CucmMHOQYplFPe7vYi26jOfc1Q2IAOF0CKtjJaNchfsg8M3CKnzlhJnwrXQCaBVVuWFwP91JEp5si3JXSXuEz+7h+2odxvc7CVFjOjSXv2ofBGYUeIUcnjAc30ongFZBlYeFE+cDQl9xOsD5oI3sHxz/SQxwkzYV5sp8uUlEj8XfaFL69EXgFDfDGe4nZrpeiJx7L26AAFeLD1rirXajhMwedAef33s0147EY+PvNvLexkaBlfgXbQqXXqYvAoMDHkdPSwTkVZLI5OBSJwI7SPqbFUY63Plz999V7ttku8QHuE0kjr9r4rcd1rXBEur3SeArNnGjCXXCFihF2IYzQS51IcDuC/ISLnaZPFDSmw2HRGQPEs7fYoPOo8YQS7pPAoPngSHmb+p8PVbSi1Mre73eEcA5BfLuvKLlXE73VwokhsgclK2Sezbmvu/uHRXDBvsmMF1/niR+/VKFHwHeY1zKRoDcV89d00XyG3HXm8OZf9bsdcMPyANW9OMfJD24bBjX924IAnMNwFaai/VUwUni3NTKXi8rApjB8tl7QytsdXM5MCw2zRZ9FYnpJ8ZGVcoQBAYo4v8SB7iL8OtNgiuXMhBoS1x6O0QIpVUkZkcY67teBuLG2QljB9V1K017ZK87PbZhL2+GACFreI/kTnbTijtrdMgbhWU/MiRHYzHguzoZagWeAXVyE7Po4I6oUb/rat6xC5OqjsMBFnJ8Yl+DvtGETdqnsb76zsCIQWS28LO74ydIekGLPu3aZELEagyHi5+0KJ+9yNAEZoBfaK4RMLfsIqOPfdQFnA519woPOeaMM1NGcmClypODh1pqfet6EJKUuL8t6VFLSMmVJz7KM3POHec6QFogPlh1YaAyiJRAYKxwAIF74i5C1AXerTC/dOmOAFEyuLLDO8hCzg8RWn5koawHHVxBvbRlOx+VBF7kvO5VSiAwA8Ym1uJqCPdDSDzqSISZn5CrNqaOXK90fbVZ7GYtuyR2GKe1MARZNg19nqz/f/ulEJi+8F5CulELYTV+RnO48ikLZRPSwZbyKxnGS5hh3n1/nkG3pUquOC/pqBDb7FM76mhdvSQC02nekZ7VuvfrCzIRRASx9Ck16lqxatgCEoTBWshYafXjbN23eX1nGdllY3n23ZwdnekujcD0C6eFVxgOnvcTVmO/bloPamr4o01TxYkz2RdKf/dli0/wCQt5U/C6stC1VkeJBKbDWM1YGrij82Uhc/t/ZUe1vgZwOGD1SQm6sGm0NUTC2D5cDRGI0Uo4meY8JquUSuBcJP6qJO783poV1fqU4+WF00EOuVdzX/yuHIoNdabk89rUPM/YKvPNTXVb//+SCZyLxOj1APJbPiLYJHMNYi04KnS947fu0zJ91vG3aKOX7IilE3hGYt6JYyNbrpv4IWxx+3gQU9vg5JkTaGupxc74HzPlUNqu2fFdag3qvL4aCEx/MdnjdBpXQgvxhOKXoZjr6ogWsGTi3bp0+aak62XoJFdn52TQ+0uVtRB41uEuYXlq/OHKOfcz3bkI/LVMq7o1Jl2DTKzrD4nVOHfJJrURGCCIefTCkLw5BRhPJr41ajm20BgzYNRQuvAsEenFWn7YHAxey1rpor4aCTwbA3a6RyQA5O+/W4OW4xCLO9XHJcxP31U+F5wVrNv9UHCSsNa7hb6aCcxAMDbH6DxGur7/7tLcGR4SnCY+03ixfD+m8ULL5rhGIlC7pUFODuju0OzozsyhONgd4OGUVWoncIrpX+qYfzVYdC2Gt/1Wc4IJkfngCcUveo4EXaseBIKbc1gy/+FHBt/btoIhB/mcr9C2woZyOJXgpgcmJcszJR2dqYO9pMlNfZgzjTlK7eUl/XdUDSnl/RfvFEwxY3PM4ucMkfmwSl+45LPJuH/b5n0fKyGu0GbfRMGAcHzjo7tMbicJE9IYwYPrMTEV1pQl88JrjHTlVJOShL5Nf7hTf22bgl3L1ExgQrm8MxKAmPdfnLcpnzMW9Y/nyM2P0SJZU1dEsh9gjxsrHLxcM7bSQnk8wYjWUbqkPD9txvS2xtGfcLq9SM0ExrY5Nrp+m/dfVjuIm3JA1suktWiEkK7Pb1FusYjFQ82u4acJbfddhRSmmHlaykXNucx81A5L3Ut11UxgIjzsFonQuvHiyM5W+fGROkssflzC4d5sHGzPiTEWa9hP4jACM2S99zQC2+KHarErON+QZaJXqZXARN7f9P64CCTvvxiXLx7ubBOIW21o0SVPDKsLkSK7CDsQTCHBep0wD1zpYU9ci1iuvhiscBg2yIl7rQTm4eRdK0WODZkhcCtkxX1KipLC6/AjxUl0VyG/EIYznKjyma3KrLIE5/9EMJVcDIxOZAtwJjTNxyRhqliKdF19OWFn7MQkZ/x8OMsYRGolMNEdCMHjshqBHGZ8ROvgsK3NNnnewwcSn9BjJoZ1z0Xs6ssPPSf63Be/p7EuYydXjNRKYFy1YpM7FwN6Tx3BwIV34aEEG2tWqXkngQ+EPhEPfAjByf7pLRvmB4cdxBmSOJ0vUmokMIdNRQTVLnJGL+sUWffYLg4pBAlYdg1H0rO+35nbkpeInKSyrcGLqqiolG0ftPt5RI1WUP1nphA5rRoPhbAOW7Xl5Bowu6lh6EebOGucqdAni/DGMRh1KlvjCpxy/9sJpIorE+MKIg8pJwXb8WV9eGO4tsuZaoWIIO9fk6OYfmGB1jaI+5BYbtV2jQQmncUqE8I+weUkcpYWhnxBq5JY99WnL4U0mWS54IyAbz5Dv24ctCEmFifmx4fVL0fkynX5tziM46yg9JhdK5+h2giMqeF/9MWIFe1AXCy1+J4XTBD5tYfMfGZ/r8sQnzoUyDq7wiBoOoSNcV5IbTe13lPDld26+hjmsLuCzLF3/Kv0ktMI55JlwqoMeXMmGE/Fq3W92gg85PvvKuJuAht7Zn54Zp+ZY8L8v/E3c0Ew+mUf4irN/3usE8emPvbx/9dtpefb5wcJImPL3XVFxtMII4tFIdQt5B369aIz7rUROMX/tytIqcTt2u7Y6t8gpBxpG6WS92LubHFYSd3iLmZa4C739ZJeORZwayMw/qV79gQ+Wyx+vRe3yj01P8pmCLFzSsLI2OZCZj5tr3ewGuO1gu04J8wcmMV6ryV0td8qNRGYd8w+LtRJwUKaESdunmeRwPopnlKz3mB7DKHxs+abs4BlSeywe8f77C2Szs4zlOG11kRg0l3mtOBhZTjGidvLQ3lusxrubdQSp+zM22KSbfJOX2DURrFqaiIwnjFHZUCSbRneNL7iZgB3hUrLVLKzJliFcbzoevDVHwoGLdVEYCId3NdgzDMVrOYcijlxDUGNUGW5Cs83e+0QuiiiK/UWrYnA2KcebgA170RcUzhxDcDsoCLHKkx3OOQiI8QkpCYCd005eqIk7v+cuOU82rlWYX4c8CYavdREYCYjZcLJRMhkEmjbpSwECKiAlZa1YPRCZM7Sw9p2HndtBI5ZhQlrCnHb3ht2BtMVRCNAlI9c80O6FA4nRy21EZjJgMTcI65Kh0lsIj5FRU4Y9VPUbXCYTt68m4qltTnrIIPGqKVGAjMhkBeDAMiMPSuG8FwHsU3mYt+lHgSencm5nzhcmG+OWmol8KgnZWKDY/VlFc4hhB0m3O1oxQk82qmtamDfzuRP7QSu6jHwztaKANEe727ced9CGwPq6hyBVQjkMJP1Qyx/3hyBnhA4NIOPrl8j9TR53owjQKpUYkiTGM1CuJnYN+RrttBXrA4/xCp2aibXsbZxm9sAc6Qk8h2PXpzAo5/iqgZIjiVW4y4yicOrGUBO4C6Pite1RmCHJi8zycO6CIECFpOtddFXdF0ncNHTM8nO7RTyE+8XOXqSaz+0QwC8yObKKO4ELmMevBdbI/BwSS+StN0GcAixSxI38hlPTpzAk5vyqga8V2PffueE/MRVDbJLZ53AXdDzun0jEJOfuO++DdKeE3gQ2L1RR8AGASewDY6uxREYBAEn8CCwe6OOgA0CTmAbHF2LIzAIAk7gQWD3Rh0BGwScwDY4uhZHYBAEnMCDwO6NOgI2CDiBbXB0LY7AIAg4gQeB3Rt1BGwQcALb4OhaHIFBEHACDwK7N+oI2CDgBLbB0bU4AoMg4AQeBHZv1BGwQcAJbIOja3EEBkHACTwI7N6oI2CDgBPYBkfX4ggMgoATeBDYvVFHwAYBJ7ANjq7FERgEASfwILB7o46ADQJOYBscXYsjMAgCTuBBYPdGHQEbBP4PpEqa9iTc2LkAAAAASUVORK5CYII=;" vertex="1" parent="OEQvsh9jKtCIjXLcF72v-5">
          <mxGeometry x="82" y="110" width="36" height="30" as="geometry" />
        </mxCell>
        <mxCell id="OEQvsh9jKtCIjXLcF72v-8" value="沙盒2" style="swimlane;whiteSpace=wrap;html=1;startSize=23;" vertex="1" parent="OEQvsh9jKtCIjXLcF72v-1">
          <mxGeometry x="450" y="270" width="200" height="210" as="geometry" />
        </mxCell>
        <mxCell id="OEQvsh9jKtCIjXLcF72v-9" value="企微B" style="sketch=0;outlineConnect=0;fontColor=#232F3E;gradientColor=none;strokeColor=#232F3E;fillColor=#ffffff;dashed=0;verticalLabelPosition=bottom;verticalAlign=top;align=center;html=1;fontSize=12;fontStyle=0;aspect=fixed;shape=mxgraph.aws4.resourceIcon;resIcon=mxgraph.aws4.traditional_server;" vertex="1" parent="OEQvsh9jKtCIjXLcF72v-8">
          <mxGeometry x="35" y="45" width="130" height="130" as="geometry" />
        </mxCell>
        <mxCell id="OEQvsh9jKtCIjXLcF72v-10" value="" style="shape=image;verticalLabelPosition=bottom;labelBackgroundColor=default;verticalAlign=top;aspect=fixed;imageAspect=0;image=data:image/png,iVBORw0KGgoAAAANSUhEUgAAAPAAAADICAYAAADWfGxSAAAAAXNSR0IArs4c6QAAGWxJREFUeF7tnQn4fUVZx78uuCCIIiqlIhlmCoJKgoKaC6KGGm6YmZaUGmgJLqTiUuaOG0aS4b6EuISmIuCCuCAJ7komiWuuKJjgUracT89cuf/7v8uZOe+cM3PO+z7Pfe6PPzPvzHznfO/MmXmXy8nFEXAEqkXgctX23DvuCDgCcgL7Q+AIVIyAE7jiyfOuOwJOYH8GHIGKEXACVzx53nVHwAnsz4AjUDECTuCKJ8+77gg4gf0ZcAQqRsAJXPHkedcdASewPwOOQMUIOIErnjzvuiPgBPZnwBGoGAEncMWT5113BJzA/gw4AhUj4ASuePK8646AE9ifAUegYgScwP1N3naSdgifayz5/l9JF0u6aOF79m+/6K+r3lItCDiB7WZqZ0m7zn1uuPDfV+nY1A8kfUvSt5d8f1XSpyT9T8c2vHplCDiB0yZsR0m3kbRv+Obvq6epMqsFec8Jn09L+lz4/NSsBVdUHAJO4HZT8huS9pd0a0n7SNq7XbXBS10q6TOS3ifpdEkfHbxH3gFTBJzAq+GErHeVdICkO5miPpwyyHxaIPP7h+uGt2yFgBN4SyRnhOX7llYgF6rnXwOZ3xlW6EK76d1ah4ATWNqzeVe8n6T7S7rZRB+Xc5sfrHdIenuDw+cnikGVw54qgTkRnpH24CpnLl+n3zVH5gvzNeOaLRCYGoE5fDokrLY3sgBwxDq4sjpB0svD1dWIh1rv0KZC4N0lHRY+l693ugbpuRN5ENjbNTp2Au82R9yrtoPES61AwIlc4KMxVgJff4641ywQ95q7BJFfKumFkty8c+CZHCOBHyvpCZIwbXTJhwBWXy9oTu7fnK8J17wJgTER+HbNivAUSXfbNOjM///nkr4p6Rvhe/5v7JkxbVz2oVvbhg/b/dnffO8iCdtqPrO/+e5qX20BBQSGyBDapWcExkDgK0k6OpB3iAOqC4KJImaKfPq8R8XEk5P1+c/2PT9DNMdWmi31syT9eID2J9tk7QQ+KBAXZ4K+5PzGgeHUxrzyTElnFXjFAqnB4w6Sbi+J/+5L/lnSEyV9sK8Gp95OzQR+fnjXzT2HbHs/HD6nSPpi7gaN9d84OGLs1/zgHBi24cZNbKGO1RgSsyK7ZEagRgKzoryoeedi9c0lPIRvCh+M/n+Wq6Ge9RJU4IHBmAUy55QTA5G/nrORqeuujcC/20SyeLGkX8s0cayuJwXi1rbSxkLCod+MzNeJrdyy/JcCiU9uWd6LRSJQE4GfJOnZkeNrW/zdcyvu1O42uW57aPhgsZZDnibpr3MonrrOGgh8xea97dWS/iDDZOFK9/eSMOCfumwTSPyH4fDLGg+um1jxXQwRKJ3AvLO9UdK9DceMKifuekDx0HqEpHsY435eiGryE2O9k1VXMoGvLYl3J0LZWAkHUi/xFbc1nOx6/jyQrnWlFgVvFYLwtSjqRdYhUCqBb9Csup+UtJPR9H2/sVp6bji9NlI5GTUYx0BiPpaHhzeRxCGXSwcESiQwE2t5AvxaSc+RRAgZl3QEOKnG4g0iWwk/1JiauiQiUBqB2S5/JHEsi9UI4MaptRvbGwEa1DxA0jOaU/vfNFD7HUl7SMJYxiUBgZIIvJck4hlbyGsah4G/kPQ9C2WuYysEfiWQ+E8MsDlD0r0aqzpC4LpEIlAKgQlv8y/NioljQhfBE+io4K/aRY/XbYcAV04cCpIqposQTI8YZZ5ZIhLFEgjMuxVG8KQl6SJnB/Jit+zSHwLYWP9tE9HyFh2bZNf0sI46Jld9aALj98rVzm07Iv+qJinYYyRd0lGPV09D4HrNjcFxzStQ1wifuCPi0+3SEoGhCfzWsHVq2d2lxf5S0l91UeB1zRDATv2IjtoOl3R8Rx2TqT4kgQl7g0tgFzk0mFl20eF1bRHgB/XpHVXitPJPHXVMovpQBMYThq1zl0MrTi7dhrnMx7QriUmhyvx+oszhldOrIQiMZQ/kvWMHGMhdRMY9l3IRwODj2A7d+0ATROEuHepPouoQBMa4AtfAVHm4pFekVvZ6vSJwz+A4ktookT2el1p5CvX6JnDXCeWwiu2ZSz0IkDTuLYndJUAesb2sDHwSu1FutT4JjF8v9714oqSIkzcFtTLqPF7SMYld4aYC802XJQj0SeAjO3gDOXnrf3xJlJZqeolvMvVdFhDoi8D49rL6prijEe6GrbdL3QhcPYTjTTHa+ZokLL5I6+Iyh0BfBMZ75akJyH+38U46oOdg6Qnd9CotEeDmAeeFFHErrYG20ISBxU45JckYtrHYyLqMB4HUO+IfStpH0pfHA0X3kfSxApPJ7s8SuoqB/KMT6nmV8hFgFU6xAyAe+OPKH15/PcxN4D0l4VgfK0TPwFrrwtiKXr4KBFK30iSFYxXuM/9U0YDmJnBq+pM/brLw4WHkMl4EUrfSL5P0qPHCEjeynATm5JnVl+gNMYIRO8bsLuNGgDORj0kiBlqs3NQ4blps+8WUz0ng1Htfts6k6XQZPwKHSWJFjZUnh0CFsfVGVz4ngfEkibW6YstNLCuX6SDwoYRMEB+XtO90IFo90lwE/r1ma0R2uhjhmoCwLGS2d5kOAsTCwlwyVrAPwKtt0pKLwPjpxqb/JDga226X6SFA3uXYNC5+zdiEoslBYOIjYfp2hcjn0NNtRAI2ouIpHkv/3qSC5TALj6XJSg4CP0TS6yIRJYFZjuyDkd3w4gMicGZwHYzpwoNCWtiYOqMqm4PApDIh32yM3K0xVj89poKXHR0CxJiONZslNewjR4dExICsCUy4nIslbR/RB7yUbhNR3ouOF4FzmjhnvxUxvPMlYWs/WbEmMLGqYldS9/Wd7OO31cBJQkcYnRiZ9NmJNYG5lOdyPkZYfVmFXRyBA5sg/6dFwoDdQNfwxJFNllPcmsDkN4rJWvdvkm5cDhzekwIQIKTszhH9eK8kiD9JsSTwlZvtz88iUXT3sEjAJlD8DZIeHDlOy+c4sulhi1sOHDev2K3wnRq/0A8OC4G3XhgCKXfCu0s6r7Bx9NIdSwITeOzlkb3esUlKdlFkHS8+bgRINRsbdeOQDqFrq0bTksCYtpGYqq1g87xL28JebjIIbBOsq3glayuTvcmwJPBHJO3fFnFJHm0yAqyJFSWQ+14RYyZwPKvw5MSSwNikbheBIClWjo4o70Wng0Bs2tkvNB5Ne0wHnstGakVgYv7+KBJAXA5PiqzjxaeBALcT5MAirPDs8wNJuJxi7Xfd8OG6afa31bNcFcJWgyZg+wWRI2e7fVZkHS/uCDgCcwhYERj7VexYY4R3nM/GVPCyjoAjsCUCVgTGm+jUSHB3S7guiGzCizsC40bAisC/35hE4tMbI7y/8H7j4gg4AokIWBGYzAtkYIgRXA4viangZR0BRyDPFjolSLfVj4fPqSMwWQSsSPSnzXH+8ZEoEvjdU6dEgubFHYF5BKwIfHBjOXNyJLS4HZIDycURcAQSEbAiME75pMmIEc/AEIOWl3UEliBgReBdJX0lEmHyH5EHycURcAQSEbAi8FWalCikfowRz0AYg5aXdQQyrsCoxq/3GhEoTzqWUQROXvQyBAhgR9IA7KJdjDMzxMbDerWkQ30WHIE1CGDhd9sQdphvnGYQ3A1xXyWB3numbBBktYUG1DOa8DhkXm8rHtCuLVLTLIe76ZNaDP3rko6TdEyLsqMrYkngZyb49/56ghfT6CbBB7QFAvuF0LIxvuUo+HyITklUy8mIJYHvHrYzMeCRguX1MRW87KgRSElLuwiI5TNdPNiWg71OwrsIQfCw4nJxBLaVdKkBDMc26X2OMNBThQpLAjPg2FhGbHtuXgVS3sncCLxD0r2NGplMuGJrAmMPHbuiemoVo6e2YjXcRrzSsP/EGofEoxdrAhPHiJSPMTLZkKAxII28LOS1vlLcV9LHR46brAnMRTt3czHi6UVj0BpnWezorVPMPloSscpHLdYEBiw8jGJztvo2etSP2cbBYYaLOa6lvK6xzydp+KglB4EJCXpkJGq+jY4EbETFcSvFis9avtiELb6ptdLS9OUg8F0kvS9yoL6NjgRsRMVzERiIbhluRkYE15ZDyUFgWiBcbOz10EGSThkt0j6wdQjk2ELTHjvBl4wZ+lwEfk6TK/iJkcC9rTGHI7Wky/QQyHGIBYpvl3SfMcOZi8BE2/hwAnB3Dk4RCVW9SsUI5LhGAo6LJZE1hO9RSi4CAxZ3cLeORI3s7A+JrOPF60fgjyThXppDWIFZiUcpOQmcEmoWkPH7PHuUaPug1iFAYgASBFgLhkWPtFZair6cBL5+Y9v6yeYynfCxMXKCpEfEVPCyo0HgewnPS5vBk7sr1sCojd7By+QkMINLOcyi3qi3PYPPerkd4N72vAzdG+0qnJvAOOyzCs9CobSdG7yaMEYf7eFDWyAmWI64akQrvb3x2Ee5CucmMHOQYplFPe7vYi26jOfc1Q2IAOF0CKtjJaNchfsg8M3CKnzlhJnwrXQCaBVVuWFwP91JEp5si3JXSXuEz+7h+2odxvc7CVFjOjSXv2ofBGYUeIUcnjAc30ongFZBlYeFE+cDQl9xOsD5oI3sHxz/SQxwkzYV5sp8uUlEj8XfaFL69EXgFDfDGe4nZrpeiJx7L26AAFeLD1rirXajhMwedAef33s0147EY+PvNvLexkaBlfgXbQqXXqYvAoMDHkdPSwTkVZLI5OBSJwI7SPqbFUY63Plz999V7ttku8QHuE0kjr9r4rcd1rXBEur3SeArNnGjCXXCFihF2IYzQS51IcDuC/ISLnaZPFDSmw2HRGQPEs7fYoPOo8YQS7pPAoPngSHmb+p8PVbSi1Mre73eEcA5BfLuvKLlXE73VwokhsgclK2Sezbmvu/uHRXDBvsmMF1/niR+/VKFHwHeY1zKRoDcV89d00XyG3HXm8OZf9bsdcMPyANW9OMfJD24bBjX924IAnMNwFaai/VUwUni3NTKXi8rApjB8tl7QytsdXM5MCw2zRZ9FYnpJ8ZGVcoQBAYo4v8SB7iL8OtNgiuXMhBoS1x6O0QIpVUkZkcY67teBuLG2QljB9V1K017ZK87PbZhL2+GACFreI/kTnbTijtrdMgbhWU/MiRHYzHguzoZagWeAXVyE7Po4I6oUb/rat6xC5OqjsMBFnJ8Yl+DvtGETdqnsb76zsCIQWS28LO74ydIekGLPu3aZELEagyHi5+0KJ+9yNAEZoBfaK4RMLfsIqOPfdQFnA519woPOeaMM1NGcmClypODh1pqfet6EJKUuL8t6VFLSMmVJz7KM3POHec6QFogPlh1YaAyiJRAYKxwAIF74i5C1AXerTC/dOmOAFEyuLLDO8hCzg8RWn5koawHHVxBvbRlOx+VBF7kvO5VSiAwA8Ym1uJqCPdDSDzqSISZn5CrNqaOXK90fbVZ7GYtuyR2GKe1MARZNg19nqz/f/ulEJi+8F5CulELYTV+RnO48ikLZRPSwZbyKxnGS5hh3n1/nkG3pUquOC/pqBDb7FM76mhdvSQC02nekZ7VuvfrCzIRRASx9Ck16lqxatgCEoTBWshYafXjbN23eX1nGdllY3n23ZwdnekujcD0C6eFVxgOnvcTVmO/bloPamr4o01TxYkz2RdKf/dli0/wCQt5U/C6stC1VkeJBKbDWM1YGrij82Uhc/t/ZUe1vgZwOGD1SQm6sGm0NUTC2D5cDRGI0Uo4meY8JquUSuBcJP6qJO783poV1fqU4+WF00EOuVdzX/yuHIoNdabk89rUPM/YKvPNTXVb//+SCZyLxOj1APJbPiLYJHMNYi04KnS947fu0zJ91vG3aKOX7IilE3hGYt6JYyNbrpv4IWxx+3gQU9vg5JkTaGupxc74HzPlUNqu2fFdag3qvL4aCEx/MdnjdBpXQgvxhOKXoZjr6ogWsGTi3bp0+aak62XoJFdn52TQ+0uVtRB41uEuYXlq/OHKOfcz3bkI/LVMq7o1Jl2DTKzrD4nVOHfJJrURGCCIefTCkLw5BRhPJr41ajm20BgzYNRQuvAsEenFWn7YHAxey1rpor4aCTwbA3a6RyQA5O+/W4OW4xCLO9XHJcxP31U+F5wVrNv9UHCSsNa7hb6aCcxAMDbH6DxGur7/7tLcGR4SnCY+03ixfD+m8ULL5rhGIlC7pUFODuju0OzozsyhONgd4OGUVWoncIrpX+qYfzVYdC2Gt/1Wc4IJkfngCcUveo4EXaseBIKbc1gy/+FHBt/btoIhB/mcr9C2woZyOJXgpgcmJcszJR2dqYO9pMlNfZgzjTlK7eUl/XdUDSnl/RfvFEwxY3PM4ucMkfmwSl+45LPJuH/b5n0fKyGu0GbfRMGAcHzjo7tMbicJE9IYwYPrMTEV1pQl88JrjHTlVJOShL5Nf7hTf22bgl3L1ExgQrm8MxKAmPdfnLcpnzMW9Y/nyM2P0SJZU1dEsh9gjxsrHLxcM7bSQnk8wYjWUbqkPD9txvS2xtGfcLq9SM0ExrY5Nrp+m/dfVjuIm3JA1suktWiEkK7Pb1FusYjFQ82u4acJbfddhRSmmHlaykXNucx81A5L3Ut11UxgIjzsFonQuvHiyM5W+fGROkssflzC4d5sHGzPiTEWa9hP4jACM2S99zQC2+KHarErON+QZaJXqZXARN7f9P64CCTvvxiXLx7ubBOIW21o0SVPDKsLkSK7CDsQTCHBep0wD1zpYU9ci1iuvhiscBg2yIl7rQTm4eRdK0WODZkhcCtkxX1KipLC6/AjxUl0VyG/EIYznKjyma3KrLIE5/9EMJVcDIxOZAtwJjTNxyRhqliKdF19OWFn7MQkZ/x8OMsYRGolMNEdCMHjshqBHGZ8ROvgsK3NNnnewwcSn9BjJoZ1z0Xs6ssPPSf63Be/p7EuYydXjNRKYFy1YpM7FwN6Tx3BwIV34aEEG2tWqXkngQ+EPhEPfAjByf7pLRvmB4cdxBmSOJ0vUmokMIdNRQTVLnJGL+sUWffYLg4pBAlYdg1H0rO+35nbkpeInKSyrcGLqqiolG0ftPt5RI1WUP1nphA5rRoPhbAOW7Xl5Bowu6lh6EebOGucqdAni/DGMRh1KlvjCpxy/9sJpIorE+MKIg8pJwXb8WV9eGO4tsuZaoWIIO9fk6OYfmGB1jaI+5BYbtV2jQQmncUqE8I+weUkcpYWhnxBq5JY99WnL4U0mWS54IyAbz5Dv24ctCEmFifmx4fVL0fkynX5tziM46yg9JhdK5+h2giMqeF/9MWIFe1AXCy1+J4XTBD5tYfMfGZ/r8sQnzoUyDq7wiBoOoSNcV5IbTe13lPDld26+hjmsLuCzLF3/Kv0ktMI55JlwqoMeXMmGE/Fq3W92gg85PvvKuJuAht7Zn54Zp+ZY8L8v/E3c0Ew+mUf4irN/3usE8emPvbx/9dtpefb5wcJImPL3XVFxtMII4tFIdQt5B369aIz7rUROMX/tytIqcTt2u7Y6t8gpBxpG6WS92LubHFYSd3iLmZa4C739ZJeORZwayMw/qV79gQ+Wyx+vRe3yj01P8pmCLFzSsLI2OZCZj5tr3ewGuO1gu04J8wcmMV6ryV0td8qNRGYd8w+LtRJwUKaESdunmeRwPopnlKz3mB7DKHxs+abs4BlSeywe8f77C2Szs4zlOG11kRg0l3mtOBhZTjGidvLQ3lusxrubdQSp+zM22KSbfJOX2DURrFqaiIwnjFHZUCSbRneNL7iZgB3hUrLVLKzJliFcbzoevDVHwoGLdVEYCId3NdgzDMVrOYcijlxDUGNUGW5Cs83e+0QuiiiK/UWrYnA2KcebgA170RcUzhxDcDsoCLHKkx3OOQiI8QkpCYCd005eqIk7v+cuOU82rlWYX4c8CYavdREYCYjZcLJRMhkEmjbpSwECKiAlZa1YPRCZM7Sw9p2HndtBI5ZhQlrCnHb3ht2BtMVRCNAlI9c80O6FA4nRy21EZjJgMTcI65Kh0lsIj5FRU4Y9VPUbXCYTt68m4qltTnrIIPGqKVGAjMhkBeDAMiMPSuG8FwHsU3mYt+lHgSencm5nzhcmG+OWmol8KgnZWKDY/VlFc4hhB0m3O1oxQk82qmtamDfzuRP7QSu6jHwztaKANEe727ced9CGwPq6hyBVQjkMJP1Qyx/3hyBnhA4NIOPrl8j9TR53owjQKpUYkiTGM1CuJnYN+RrttBXrA4/xCp2aibXsbZxm9sAc6Qk8h2PXpzAo5/iqgZIjiVW4y4yicOrGUBO4C6Pite1RmCHJi8zycO6CIECFpOtddFXdF0ncNHTM8nO7RTyE+8XOXqSaz+0QwC8yObKKO4ELmMevBdbI/BwSS+StN0GcAixSxI38hlPTpzAk5vyqga8V2PffueE/MRVDbJLZ53AXdDzun0jEJOfuO++DdKeE3gQ2L1RR8AGASewDY6uxREYBAEn8CCwe6OOgA0CTmAbHF2LIzAIAk7gQWD3Rh0BGwScwDY4uhZHYBAEnMCDwO6NOgI2CDiBbXB0LY7AIAg4gQeB3Rt1BGwQcALb4OhaHIFBEHACDwK7N+oI2CDgBLbB0bU4AoMg4AQeBHZv1BGwQcAJbIOja3EEBkHACTwI7N6oI2CDgBPYBkfX4ggMgoATeBDYvVFHwAYBJ7ANjq7FERgEASfwILB7o46ADQJOYBscXYsjMAgCTuBBYPdGHQEbBP4PpEqa9iTc2LkAAAAASUVORK5CYII=;" vertex="1" parent="OEQvsh9jKtCIjXLcF72v-8">
          <mxGeometry x="82" y="115" width="36" height="30" as="geometry" />
        </mxCell>
        <mxCell id="OEQvsh9jKtCIjXLcF72v-11" value="" style="shape=flexArrow;endArrow=classic;html=1;rounded=0;entryX=0;entryY=0.5;entryDx=0;entryDy=0;fillColor=#60a917;strokeColor=#2D7600;" edge="1" parent="OEQvsh9jKtCIjXLcF72v-1" source="OEQvsh9jKtCIjXLcF72v-3" target="OEQvsh9jKtCIjXLcF72v-5">
          <mxGeometry width="50" height="50" relative="1" as="geometry">
            <mxPoint x="260" y="230" as="sourcePoint" />
            <mxPoint x="310" y="180" as="targetPoint" />
          </mxGeometry>
        </mxCell>
        <mxCell id="OEQvsh9jKtCIjXLcF72v-12" value="&lt;b&gt;&lt;font style=&quot;font-size: 16px;&quot;&gt;自动迁移&lt;/font&gt;&lt;/b&gt;" style="text;html=1;align=center;verticalAlign=middle;resizable=0;points=[];autosize=1;strokeColor=none;fillColor=none;rotation=-20;" vertex="1" parent="OEQvsh9jKtCIjXLcF72v-1">
          <mxGeometry x="280" y="150" width="90" height="30" as="geometry" />
        </mxCell>
        <mxCell id="OEQvsh9jKtCIjXLcF72v-13" value="" style="sketch=0;pointerEvents=1;shadow=0;dashed=0;html=1;strokeColor=none;fillColor=#505050;labelPosition=center;verticalLabelPosition=bottom;verticalAlign=top;outlineConnect=0;align=center;shape=mxgraph.office.devices.workstation_pc;" vertex="1" parent="1">
          <mxGeometry y="170" width="53" height="60" as="geometry" />
        </mxCell>
        <mxCell id="OEQvsh9jKtCIjXLcF72v-14" value="云桌面2" style="swimlane;whiteSpace=wrap;html=1;startSize=23;fillColor=#b1ddf0;strokeColor=#10739e;labelBorderColor=none;fontSize=15;" vertex="1" parent="1">
          <mxGeometry x="440" y="230" width="760" height="500" as="geometry" />
        </mxCell>
        <mxCell id="OEQvsh9jKtCIjXLcF72v-15" value="原桌面登录的企微" style="swimlane;whiteSpace=wrap;html=1;fillColor=#d5e8d4;strokeColor=#82b366;" vertex="1" parent="OEQvsh9jKtCIjXLcF72v-14">
          <mxGeometry x="120" y="150" width="200" height="200" as="geometry" />
        </mxCell>
        <mxCell id="OEQvsh9jKtCIjXLcF72v-16" value="企微B" style="sketch=0;outlineConnect=0;fontColor=#232F3E;gradientColor=none;strokeColor=#232F3E;fillColor=#ffffff;dashed=0;verticalLabelPosition=bottom;verticalAlign=top;align=center;html=1;fontSize=12;fontStyle=0;aspect=fixed;shape=mxgraph.aws4.resourceIcon;resIcon=mxgraph.aws4.traditional_server;" vertex="1" parent="OEQvsh9jKtCIjXLcF72v-15">
          <mxGeometry x="39" y="40" width="130" height="130" as="geometry" />
        </mxCell>
        <mxCell id="OEQvsh9jKtCIjXLcF72v-17" value="" style="shape=image;verticalLabelPosition=bottom;labelBackgroundColor=default;verticalAlign=top;aspect=fixed;imageAspect=0;image=data:image/png,iVBORw0KGgoAAAANSUhEUgAAAPAAAADICAYAAADWfGxSAAAAAXNSR0IArs4c6QAAGWxJREFUeF7tnQn4fUVZx78uuCCIIiqlIhlmCoJKgoKaC6KGGm6YmZaUGmgJLqTiUuaOG0aS4b6EuISmIuCCuCAJ7komiWuuKJjgUracT89cuf/7v8uZOe+cM3PO+z7Pfe6PPzPvzHznfO/MmXmXy8nFEXAEqkXgctX23DvuCDgCcgL7Q+AIVIyAE7jiyfOuOwJOYH8GHIGKEXACVzx53nVHwAnsz4AjUDECTuCKJ8+77gg4gf0ZcAQqRsAJXPHkedcdASewPwOOQMUIOIErnjzvuiPgBPZnwBGoGAEncMWT5113BJzA/gw4AhUj4ASuePK8646AE9ifAUegYgScwP1N3naSdgifayz5/l9JF0u6aOF79m+/6K+r3lItCDiB7WZqZ0m7zn1uuPDfV+nY1A8kfUvSt5d8f1XSpyT9T8c2vHplCDiB0yZsR0m3kbRv+Obvq6epMqsFec8Jn09L+lz4/NSsBVdUHAJO4HZT8huS9pd0a0n7SNq7XbXBS10q6TOS3ifpdEkfHbxH3gFTBJzAq+GErHeVdICkO5miPpwyyHxaIPP7h+uGt2yFgBN4SyRnhOX7llYgF6rnXwOZ3xlW6EK76d1ah4ATWNqzeVe8n6T7S7rZRB+Xc5sfrHdIenuDw+cnikGVw54qgTkRnpH24CpnLl+n3zVH5gvzNeOaLRCYGoE5fDokrLY3sgBwxDq4sjpB0svD1dWIh1rv0KZC4N0lHRY+l693ugbpuRN5ENjbNTp2Au82R9yrtoPES61AwIlc4KMxVgJff4641ywQ95q7BJFfKumFkty8c+CZHCOBHyvpCZIwbXTJhwBWXy9oTu7fnK8J17wJgTER+HbNivAUSXfbNOjM///nkr4p6Rvhe/5v7JkxbVz2oVvbhg/b/dnffO8iCdtqPrO/+e5qX20BBQSGyBDapWcExkDgK0k6OpB3iAOqC4KJImaKfPq8R8XEk5P1+c/2PT9DNMdWmi31syT9eID2J9tk7QQ+KBAXZ4K+5PzGgeHUxrzyTElnFXjFAqnB4w6Sbi+J/+5L/lnSEyV9sK8Gp95OzQR+fnjXzT2HbHs/HD6nSPpi7gaN9d84OGLs1/zgHBi24cZNbKGO1RgSsyK7ZEagRgKzoryoeedi9c0lPIRvCh+M/n+Wq6Ge9RJU4IHBmAUy55QTA5G/nrORqeuujcC/20SyeLGkX8s0cayuJwXi1rbSxkLCod+MzNeJrdyy/JcCiU9uWd6LRSJQE4GfJOnZkeNrW/zdcyvu1O42uW57aPhgsZZDnibpr3MonrrOGgh8xea97dWS/iDDZOFK9/eSMOCfumwTSPyH4fDLGg+um1jxXQwRKJ3AvLO9UdK9DceMKifuekDx0HqEpHsY435eiGryE2O9k1VXMoGvLYl3J0LZWAkHUi/xFbc1nOx6/jyQrnWlFgVvFYLwtSjqRdYhUCqBb9Csup+UtJPR9H2/sVp6bji9NlI5GTUYx0BiPpaHhzeRxCGXSwcESiQwE2t5AvxaSc+RRAgZl3QEOKnG4g0iWwk/1JiauiQiUBqB2S5/JHEsi9UI4MaptRvbGwEa1DxA0jOaU/vfNFD7HUl7SMJYxiUBgZIIvJck4hlbyGsah4G/kPQ9C2WuYysEfiWQ+E8MsDlD0r0aqzpC4LpEIlAKgQlv8y/NioljQhfBE+io4K/aRY/XbYcAV04cCpIqposQTI8YZZ5ZIhLFEgjMuxVG8KQl6SJnB/Jit+zSHwLYWP9tE9HyFh2bZNf0sI46Jld9aALj98rVzm07Iv+qJinYYyRd0lGPV09D4HrNjcFxzStQ1wifuCPi0+3SEoGhCfzWsHVq2d2lxf5S0l91UeB1zRDATv2IjtoOl3R8Rx2TqT4kgQl7g0tgFzk0mFl20eF1bRHgB/XpHVXitPJPHXVMovpQBMYThq1zl0MrTi7dhrnMx7QriUmhyvx+oszhldOrIQiMZQ/kvWMHGMhdRMY9l3IRwODj2A7d+0ATROEuHepPouoQBMa4AtfAVHm4pFekVvZ6vSJwz+A4ktookT2el1p5CvX6JnDXCeWwiu2ZSz0IkDTuLYndJUAesb2sDHwSu1FutT4JjF8v9714oqSIkzcFtTLqPF7SMYld4aYC802XJQj0SeAjO3gDOXnrf3xJlJZqeolvMvVdFhDoi8D49rL6prijEe6GrbdL3QhcPYTjTTHa+ZokLL5I6+Iyh0BfBMZ75akJyH+38U46oOdg6Qnd9CotEeDmAeeFFHErrYG20ISBxU45JckYtrHYyLqMB4HUO+IfStpH0pfHA0X3kfSxApPJ7s8SuoqB/KMT6nmV8hFgFU6xAyAe+OPKH15/PcxN4D0l4VgfK0TPwFrrwtiKXr4KBFK30iSFYxXuM/9U0YDmJnBq+pM/brLw4WHkMl4EUrfSL5P0qPHCEjeynATm5JnVl+gNMYIRO8bsLuNGgDORj0kiBlqs3NQ4blps+8WUz0ng1Htfts6k6XQZPwKHSWJFjZUnh0CFsfVGVz4ngfEkibW6YstNLCuX6SDwoYRMEB+XtO90IFo90lwE/r1ma0R2uhjhmoCwLGS2d5kOAsTCwlwyVrAPwKtt0pKLwPjpxqb/JDga226X6SFA3uXYNC5+zdiEoslBYOIjYfp2hcjn0NNtRAI2ouIpHkv/3qSC5TALj6XJSg4CP0TS6yIRJYFZjuyDkd3w4gMicGZwHYzpwoNCWtiYOqMqm4PApDIh32yM3K0xVj89poKXHR0CxJiONZslNewjR4dExICsCUy4nIslbR/RB7yUbhNR3ouOF4FzmjhnvxUxvPMlYWs/WbEmMLGqYldS9/Wd7OO31cBJQkcYnRiZ9NmJNYG5lOdyPkZYfVmFXRyBA5sg/6dFwoDdQNfwxJFNllPcmsDkN4rJWvdvkm5cDhzekwIQIKTszhH9eK8kiD9JsSTwlZvtz88iUXT3sEjAJlD8DZIeHDlOy+c4sulhi1sOHDev2K3wnRq/0A8OC4G3XhgCKXfCu0s6r7Bx9NIdSwITeOzlkb3esUlKdlFkHS8+bgRINRsbdeOQDqFrq0bTksCYtpGYqq1g87xL28JebjIIbBOsq3glayuTvcmwJPBHJO3fFnFJHm0yAqyJFSWQ+14RYyZwPKvw5MSSwNikbheBIClWjo4o70Wng0Bs2tkvNB5Ne0wHnstGakVgYv7+KBJAXA5PiqzjxaeBALcT5MAirPDs8wNJuJxi7Xfd8OG6afa31bNcFcJWgyZg+wWRI2e7fVZkHS/uCDgCcwhYERj7VexYY4R3nM/GVPCyjoAjsCUCVgTGm+jUSHB3S7guiGzCizsC40bAisC/35hE4tMbI7y/8H7j4gg4AokIWBGYzAtkYIgRXA4viangZR0BRyDPFjolSLfVj4fPqSMwWQSsSPSnzXH+8ZEoEvjdU6dEgubFHYF5BKwIfHBjOXNyJLS4HZIDycURcAQSEbAiME75pMmIEc/AEIOWl3UEliBgReBdJX0lEmHyH5EHycURcAQSEbAi8FWalCikfowRz0AYg5aXdQQyrsCoxq/3GhEoTzqWUQROXvQyBAhgR9IA7KJdjDMzxMbDerWkQ30WHIE1CGDhd9sQdphvnGYQ3A1xXyWB3numbBBktYUG1DOa8DhkXm8rHtCuLVLTLIe76ZNaDP3rko6TdEyLsqMrYkngZyb49/56ghfT6CbBB7QFAvuF0LIxvuUo+HyITklUy8mIJYHvHrYzMeCRguX1MRW87KgRSElLuwiI5TNdPNiWg71OwrsIQfCw4nJxBLaVdKkBDMc26X2OMNBThQpLAjPg2FhGbHtuXgVS3sncCLxD0r2NGplMuGJrAmMPHbuiemoVo6e2YjXcRrzSsP/EGofEoxdrAhPHiJSPMTLZkKAxII28LOS1vlLcV9LHR46brAnMRTt3czHi6UVj0BpnWezorVPMPloSscpHLdYEBiw8jGJztvo2etSP2cbBYYaLOa6lvK6xzydp+KglB4EJCXpkJGq+jY4EbETFcSvFis9avtiELb6ptdLS9OUg8F0kvS9yoL6NjgRsRMVzERiIbhluRkYE15ZDyUFgWiBcbOz10EGSThkt0j6wdQjk2ELTHjvBl4wZ+lwEfk6TK/iJkcC9rTGHI7Wky/QQyHGIBYpvl3SfMcOZi8BE2/hwAnB3Dk4RCVW9SsUI5LhGAo6LJZE1hO9RSi4CAxZ3cLeORI3s7A+JrOPF60fgjyThXppDWIFZiUcpOQmcEmoWkPH7PHuUaPug1iFAYgASBFgLhkWPtFZair6cBL5+Y9v6yeYynfCxMXKCpEfEVPCyo0HgewnPS5vBk7sr1sCojd7By+QkMINLOcyi3qi3PYPPerkd4N72vAzdG+0qnJvAOOyzCs9CobSdG7yaMEYf7eFDWyAmWI64akQrvb3x2Ee5CucmMHOQYplFPe7vYi26jOfc1Q2IAOF0CKtjJaNchfsg8M3CKnzlhJnwrXQCaBVVuWFwP91JEp5si3JXSXuEz+7h+2odxvc7CVFjOjSXv2ofBGYUeIUcnjAc30ongFZBlYeFE+cDQl9xOsD5oI3sHxz/SQxwkzYV5sp8uUlEj8XfaFL69EXgFDfDGe4nZrpeiJx7L26AAFeLD1rirXajhMwedAef33s0147EY+PvNvLexkaBlfgXbQqXXqYvAoMDHkdPSwTkVZLI5OBSJwI7SPqbFUY63Plz999V7ttku8QHuE0kjr9r4rcd1rXBEur3SeArNnGjCXXCFihF2IYzQS51IcDuC/ISLnaZPFDSmw2HRGQPEs7fYoPOo8YQS7pPAoPngSHmb+p8PVbSi1Mre73eEcA5BfLuvKLlXE73VwokhsgclK2Sezbmvu/uHRXDBvsmMF1/niR+/VKFHwHeY1zKRoDcV89d00XyG3HXm8OZf9bsdcMPyANW9OMfJD24bBjX924IAnMNwFaai/VUwUni3NTKXi8rApjB8tl7QytsdXM5MCw2zRZ9FYnpJ8ZGVcoQBAYo4v8SB7iL8OtNgiuXMhBoS1x6O0QIpVUkZkcY67teBuLG2QljB9V1K017ZK87PbZhL2+GACFreI/kTnbTijtrdMgbhWU/MiRHYzHguzoZagWeAXVyE7Po4I6oUb/rat6xC5OqjsMBFnJ8Yl+DvtGETdqnsb76zsCIQWS28LO74ydIekGLPu3aZELEagyHi5+0KJ+9yNAEZoBfaK4RMLfsIqOPfdQFnA519woPOeaMM1NGcmClypODh1pqfet6EJKUuL8t6VFLSMmVJz7KM3POHec6QFogPlh1YaAyiJRAYKxwAIF74i5C1AXerTC/dOmOAFEyuLLDO8hCzg8RWn5koawHHVxBvbRlOx+VBF7kvO5VSiAwA8Ym1uJqCPdDSDzqSISZn5CrNqaOXK90fbVZ7GYtuyR2GKe1MARZNg19nqz/f/ulEJi+8F5CulELYTV+RnO48ikLZRPSwZbyKxnGS5hh3n1/nkG3pUquOC/pqBDb7FM76mhdvSQC02nekZ7VuvfrCzIRRASx9Ck16lqxatgCEoTBWshYafXjbN23eX1nGdllY3n23ZwdnekujcD0C6eFVxgOnvcTVmO/bloPamr4o01TxYkz2RdKf/dli0/wCQt5U/C6stC1VkeJBKbDWM1YGrij82Uhc/t/ZUe1vgZwOGD1SQm6sGm0NUTC2D5cDRGI0Uo4meY8JquUSuBcJP6qJO783poV1fqU4+WF00EOuVdzX/yuHIoNdabk89rUPM/YKvPNTXVb//+SCZyLxOj1APJbPiLYJHMNYi04KnS947fu0zJ91vG3aKOX7IilE3hGYt6JYyNbrpv4IWxx+3gQU9vg5JkTaGupxc74HzPlUNqu2fFdag3qvL4aCEx/MdnjdBpXQgvxhOKXoZjr6ogWsGTi3bp0+aak62XoJFdn52TQ+0uVtRB41uEuYXlq/OHKOfcz3bkI/LVMq7o1Jl2DTKzrD4nVOHfJJrURGCCIefTCkLw5BRhPJr41ajm20BgzYNRQuvAsEenFWn7YHAxey1rpor4aCTwbA3a6RyQA5O+/W4OW4xCLO9XHJcxP31U+F5wVrNv9UHCSsNa7hb6aCcxAMDbH6DxGur7/7tLcGR4SnCY+03ixfD+m8ULL5rhGIlC7pUFODuju0OzozsyhONgd4OGUVWoncIrpX+qYfzVYdC2Gt/1Wc4IJkfngCcUveo4EXaseBIKbc1gy/+FHBt/btoIhB/mcr9C2woZyOJXgpgcmJcszJR2dqYO9pMlNfZgzjTlK7eUl/XdUDSnl/RfvFEwxY3PM4ucMkfmwSl+45LPJuH/b5n0fKyGu0GbfRMGAcHzjo7tMbicJE9IYwYPrMTEV1pQl88JrjHTlVJOShL5Nf7hTf22bgl3L1ExgQrm8MxKAmPdfnLcpnzMW9Y/nyM2P0SJZU1dEsh9gjxsrHLxcM7bSQnk8wYjWUbqkPD9txvS2xtGfcLq9SM0ExrY5Nrp+m/dfVjuIm3JA1suktWiEkK7Pb1FusYjFQ82u4acJbfddhRSmmHlaykXNucx81A5L3Ut11UxgIjzsFonQuvHiyM5W+fGROkssflzC4d5sHGzPiTEWa9hP4jACM2S99zQC2+KHarErON+QZaJXqZXARN7f9P64CCTvvxiXLx7ubBOIW21o0SVPDKsLkSK7CDsQTCHBep0wD1zpYU9ci1iuvhiscBg2yIl7rQTm4eRdK0WODZkhcCtkxX1KipLC6/AjxUl0VyG/EIYznKjyma3KrLIE5/9EMJVcDIxOZAtwJjTNxyRhqliKdF19OWFn7MQkZ/x8OMsYRGolMNEdCMHjshqBHGZ8ROvgsK3NNnnewwcSn9BjJoZ1z0Xs6ssPPSf63Be/p7EuYydXjNRKYFy1YpM7FwN6Tx3BwIV34aEEG2tWqXkngQ+EPhEPfAjByf7pLRvmB4cdxBmSOJ0vUmokMIdNRQTVLnJGL+sUWffYLg4pBAlYdg1H0rO+35nbkpeInKSyrcGLqqiolG0ftPt5RI1WUP1nphA5rRoPhbAOW7Xl5Bowu6lh6EebOGucqdAni/DGMRh1KlvjCpxy/9sJpIorE+MKIg8pJwXb8WV9eGO4tsuZaoWIIO9fk6OYfmGB1jaI+5BYbtV2jQQmncUqE8I+weUkcpYWhnxBq5JY99WnL4U0mWS54IyAbz5Dv24ctCEmFifmx4fVL0fkynX5tziM46yg9JhdK5+h2giMqeF/9MWIFe1AXCy1+J4XTBD5tYfMfGZ/r8sQnzoUyDq7wiBoOoSNcV5IbTe13lPDld26+hjmsLuCzLF3/Kv0ktMI55JlwqoMeXMmGE/Fq3W92gg85PvvKuJuAht7Zn54Zp+ZY8L8v/E3c0Ew+mUf4irN/3usE8emPvbx/9dtpefb5wcJImPL3XVFxtMII4tFIdQt5B369aIz7rUROMX/tytIqcTt2u7Y6t8gpBxpG6WS92LubHFYSd3iLmZa4C739ZJeORZwayMw/qV79gQ+Wyx+vRe3yj01P8pmCLFzSsLI2OZCZj5tr3ewGuO1gu04J8wcmMV6ryV0td8qNRGYd8w+LtRJwUKaESdunmeRwPopnlKz3mB7DKHxs+abs4BlSeywe8f77C2Szs4zlOG11kRg0l3mtOBhZTjGidvLQ3lusxrubdQSp+zM22KSbfJOX2DURrFqaiIwnjFHZUCSbRneNL7iZgB3hUrLVLKzJliFcbzoevDVHwoGLdVEYCId3NdgzDMVrOYcijlxDUGNUGW5Cs83e+0QuiiiK/UWrYnA2KcebgA170RcUzhxDcDsoCLHKkx3OOQiI8QkpCYCd005eqIk7v+cuOU82rlWYX4c8CYavdREYCYjZcLJRMhkEmjbpSwECKiAlZa1YPRCZM7Sw9p2HndtBI5ZhQlrCnHb3ht2BtMVRCNAlI9c80O6FA4nRy21EZjJgMTcI65Kh0lsIj5FRU4Y9VPUbXCYTt68m4qltTnrIIPGqKVGAjMhkBeDAMiMPSuG8FwHsU3mYt+lHgSencm5nzhcmG+OWmol8KgnZWKDY/VlFc4hhB0m3O1oxQk82qmtamDfzuRP7QSu6jHwztaKANEe727ced9CGwPq6hyBVQjkMJP1Qyx/3hyBnhA4NIOPrl8j9TR53owjQKpUYkiTGM1CuJnYN+RrttBXrA4/xCp2aibXsbZxm9sAc6Qk8h2PXpzAo5/iqgZIjiVW4y4yicOrGUBO4C6Pite1RmCHJi8zycO6CIECFpOtddFXdF0ncNHTM8nO7RTyE+8XOXqSaz+0QwC8yObKKO4ELmMevBdbI/BwSS+StN0GcAixSxI38hlPTpzAk5vyqga8V2PffueE/MRVDbJLZ53AXdDzun0jEJOfuO++DdKeE3gQ2L1RR8AGASewDY6uxREYBAEn8CCwe6OOgA0CTmAbHF2LIzAIAk7gQWD3Rh0BGwScwDY4uhZHYBAEnMCDwO6NOgI2CDiBbXB0LY7AIAg4gQeB3Rt1BGwQcALb4OhaHIFBEHACDwK7N+oI2CDgBLbB0bU4AoMg4AQeBHZv1BGwQcAJbIOja3EEBkHACTwI7N6oI2CDgBPYBkfX4ggMgoATeBDYvVFHwAYBJ7ANjq7FERgEASfwILB7o46ADQJOYBscXYsjMAgCTuBBYPdGHQEbBP4PpEqa9iTc2LkAAAAASUVORK5CYII=;" vertex="1" parent="OEQvsh9jKtCIjXLcF72v-15">
          <mxGeometry x="86" y="110" width="36" height="30" as="geometry" />
        </mxCell>
        <mxCell id="OEQvsh9jKtCIjXLcF72v-18" value="沙盒1" style="swimlane;whiteSpace=wrap;html=1;startSize=23;" vertex="1" parent="OEQvsh9jKtCIjXLcF72v-14">
          <mxGeometry x="450" y="40" width="200" height="200" as="geometry" />
        </mxCell>
        <mxCell id="OEQvsh9jKtCIjXLcF72v-19" value="新企微" style="sketch=0;outlineConnect=0;fontColor=#232F3E;gradientColor=none;strokeColor=#232F3E;fillColor=#ffffff;dashed=0;verticalLabelPosition=bottom;verticalAlign=top;align=center;html=1;fontSize=12;fontStyle=0;aspect=fixed;shape=mxgraph.aws4.resourceIcon;resIcon=mxgraph.aws4.traditional_server;" vertex="1" parent="OEQvsh9jKtCIjXLcF72v-18">
          <mxGeometry x="35" y="35" width="130" height="130" as="geometry" />
        </mxCell>
        <mxCell id="OEQvsh9jKtCIjXLcF72v-20" value="" style="shape=image;verticalLabelPosition=bottom;labelBackgroundColor=default;verticalAlign=top;aspect=fixed;imageAspect=0;image=data:image/png,iVBORw0KGgoAAAANSUhEUgAAAPAAAADICAYAAADWfGxSAAAAAXNSR0IArs4c6QAAGWxJREFUeF7tnQn4fUVZx78uuCCIIiqlIhlmCoJKgoKaC6KGGm6YmZaUGmgJLqTiUuaOG0aS4b6EuISmIuCCuCAJ7komiWuuKJjgUracT89cuf/7v8uZOe+cM3PO+z7Pfe6PPzPvzHznfO/MmXmXy8nFEXAEqkXgctX23DvuCDgCcgL7Q+AIVIyAE7jiyfOuOwJOYH8GHIGKEXACVzx53nVHwAnsz4AjUDECTuCKJ8+77gg4gf0ZcAQqRsAJXPHkedcdASewPwOOQMUIOIErnjzvuiPgBPZnwBGoGAEncMWT5113BJzA/gw4AhUj4ASuePK8646AE9ifAUegYgScwP1N3naSdgifayz5/l9JF0u6aOF79m+/6K+r3lItCDiB7WZqZ0m7zn1uuPDfV+nY1A8kfUvSt5d8f1XSpyT9T8c2vHplCDiB0yZsR0m3kbRv+Obvq6epMqsFec8Jn09L+lz4/NSsBVdUHAJO4HZT8huS9pd0a0n7SNq7XbXBS10q6TOS3ifpdEkfHbxH3gFTBJzAq+GErHeVdICkO5miPpwyyHxaIPP7h+uGt2yFgBN4SyRnhOX7llYgF6rnXwOZ3xlW6EK76d1ah4ATWNqzeVe8n6T7S7rZRB+Xc5sfrHdIenuDw+cnikGVw54qgTkRnpH24CpnLl+n3zVH5gvzNeOaLRCYGoE5fDokrLY3sgBwxDq4sjpB0svD1dWIh1rv0KZC4N0lHRY+l693ugbpuRN5ENjbNTp2Au82R9yrtoPES61AwIlc4KMxVgJff4641ywQ95q7BJFfKumFkty8c+CZHCOBHyvpCZIwbXTJhwBWXy9oTu7fnK8J17wJgTER+HbNivAUSXfbNOjM///nkr4p6Rvhe/5v7JkxbVz2oVvbhg/b/dnffO8iCdtqPrO/+e5qX20BBQSGyBDapWcExkDgK0k6OpB3iAOqC4KJImaKfPq8R8XEk5P1+c/2PT9DNMdWmi31syT9eID2J9tk7QQ+KBAXZ4K+5PzGgeHUxrzyTElnFXjFAqnB4w6Sbi+J/+5L/lnSEyV9sK8Gp95OzQR+fnjXzT2HbHs/HD6nSPpi7gaN9d84OGLs1/zgHBi24cZNbKGO1RgSsyK7ZEagRgKzoryoeedi9c0lPIRvCh+M/n+Wq6Ge9RJU4IHBmAUy55QTA5G/nrORqeuujcC/20SyeLGkX8s0cayuJwXi1rbSxkLCod+MzNeJrdyy/JcCiU9uWd6LRSJQE4GfJOnZkeNrW/zdcyvu1O42uW57aPhgsZZDnibpr3MonrrOGgh8xea97dWS/iDDZOFK9/eSMOCfumwTSPyH4fDLGg+um1jxXQwRKJ3AvLO9UdK9DceMKifuekDx0HqEpHsY435eiGryE2O9k1VXMoGvLYl3J0LZWAkHUi/xFbc1nOx6/jyQrnWlFgVvFYLwtSjqRdYhUCqBb9Csup+UtJPR9H2/sVp6bji9NlI5GTUYx0BiPpaHhzeRxCGXSwcESiQwE2t5AvxaSc+RRAgZl3QEOKnG4g0iWwk/1JiauiQiUBqB2S5/JHEsi9UI4MaptRvbGwEa1DxA0jOaU/vfNFD7HUl7SMJYxiUBgZIIvJck4hlbyGsah4G/kPQ9C2WuYysEfiWQ+E8MsDlD0r0aqzpC4LpEIlAKgQlv8y/NioljQhfBE+io4K/aRY/XbYcAV04cCpIqposQTI8YZZ5ZIhLFEgjMuxVG8KQl6SJnB/Jit+zSHwLYWP9tE9HyFh2bZNf0sI46Jld9aALj98rVzm07Iv+qJinYYyRd0lGPV09D4HrNjcFxzStQ1wifuCPi0+3SEoGhCfzWsHVq2d2lxf5S0l91UeB1zRDATv2IjtoOl3R8Rx2TqT4kgQl7g0tgFzk0mFl20eF1bRHgB/XpHVXitPJPHXVMovpQBMYThq1zl0MrTi7dhrnMx7QriUmhyvx+oszhldOrIQiMZQ/kvWMHGMhdRMY9l3IRwODj2A7d+0ATROEuHepPouoQBMa4AtfAVHm4pFekVvZ6vSJwz+A4ktookT2el1p5CvX6JnDXCeWwiu2ZSz0IkDTuLYndJUAesb2sDHwSu1FutT4JjF8v9714oqSIkzcFtTLqPF7SMYld4aYC802XJQj0SeAjO3gDOXnrf3xJlJZqeolvMvVdFhDoi8D49rL6prijEe6GrbdL3QhcPYTjTTHa+ZokLL5I6+Iyh0BfBMZ75akJyH+38U46oOdg6Qnd9CotEeDmAeeFFHErrYG20ISBxU45JckYtrHYyLqMB4HUO+IfStpH0pfHA0X3kfSxApPJ7s8SuoqB/KMT6nmV8hFgFU6xAyAe+OPKH15/PcxN4D0l4VgfK0TPwFrrwtiKXr4KBFK30iSFYxXuM/9U0YDmJnBq+pM/brLw4WHkMl4EUrfSL5P0qPHCEjeynATm5JnVl+gNMYIRO8bsLuNGgDORj0kiBlqs3NQ4blps+8WUz0ng1Htfts6k6XQZPwKHSWJFjZUnh0CFsfVGVz4ngfEkibW6YstNLCuX6SDwoYRMEB+XtO90IFo90lwE/r1ma0R2uhjhmoCwLGS2d5kOAsTCwlwyVrAPwKtt0pKLwPjpxqb/JDga226X6SFA3uXYNC5+zdiEoslBYOIjYfp2hcjn0NNtRAI2ouIpHkv/3qSC5TALj6XJSg4CP0TS6yIRJYFZjuyDkd3w4gMicGZwHYzpwoNCWtiYOqMqm4PApDIh32yM3K0xVj89poKXHR0CxJiONZslNewjR4dExICsCUy4nIslbR/RB7yUbhNR3ouOF4FzmjhnvxUxvPMlYWs/WbEmMLGqYldS9/Wd7OO31cBJQkcYnRiZ9NmJNYG5lOdyPkZYfVmFXRyBA5sg/6dFwoDdQNfwxJFNllPcmsDkN4rJWvdvkm5cDhzekwIQIKTszhH9eK8kiD9JsSTwlZvtz88iUXT3sEjAJlD8DZIeHDlOy+c4sulhi1sOHDev2K3wnRq/0A8OC4G3XhgCKXfCu0s6r7Bx9NIdSwITeOzlkb3esUlKdlFkHS8+bgRINRsbdeOQDqFrq0bTksCYtpGYqq1g87xL28JebjIIbBOsq3glayuTvcmwJPBHJO3fFnFJHm0yAqyJFSWQ+14RYyZwPKvw5MSSwNikbheBIClWjo4o70Wng0Bs2tkvNB5Ne0wHnstGakVgYv7+KBJAXA5PiqzjxaeBALcT5MAirPDs8wNJuJxi7Xfd8OG6afa31bNcFcJWgyZg+wWRI2e7fVZkHS/uCDgCcwhYERj7VexYY4R3nM/GVPCyjoAjsCUCVgTGm+jUSHB3S7guiGzCizsC40bAisC/35hE4tMbI7y/8H7j4gg4AokIWBGYzAtkYIgRXA4viangZR0BRyDPFjolSLfVj4fPqSMwWQSsSPSnzXH+8ZEoEvjdU6dEgubFHYF5BKwIfHBjOXNyJLS4HZIDycURcAQSEbAiME75pMmIEc/AEIOWl3UEliBgReBdJX0lEmHyH5EHycURcAQSEbAi8FWalCikfowRz0AYg5aXdQQyrsCoxq/3GhEoTzqWUQROXvQyBAhgR9IA7KJdjDMzxMbDerWkQ30WHIE1CGDhd9sQdphvnGYQ3A1xXyWB3numbBBktYUG1DOa8DhkXm8rHtCuLVLTLIe76ZNaDP3rko6TdEyLsqMrYkngZyb49/56ghfT6CbBB7QFAvuF0LIxvuUo+HyITklUy8mIJYHvHrYzMeCRguX1MRW87KgRSElLuwiI5TNdPNiWg71OwrsIQfCw4nJxBLaVdKkBDMc26X2OMNBThQpLAjPg2FhGbHtuXgVS3sncCLxD0r2NGplMuGJrAmMPHbuiemoVo6e2YjXcRrzSsP/EGofEoxdrAhPHiJSPMTLZkKAxII28LOS1vlLcV9LHR46brAnMRTt3czHi6UVj0BpnWezorVPMPloSscpHLdYEBiw8jGJztvo2etSP2cbBYYaLOa6lvK6xzydp+KglB4EJCXpkJGq+jY4EbETFcSvFis9avtiELb6ptdLS9OUg8F0kvS9yoL6NjgRsRMVzERiIbhluRkYE15ZDyUFgWiBcbOz10EGSThkt0j6wdQjk2ELTHjvBl4wZ+lwEfk6TK/iJkcC9rTGHI7Wky/QQyHGIBYpvl3SfMcOZi8BE2/hwAnB3Dk4RCVW9SsUI5LhGAo6LJZE1hO9RSi4CAxZ3cLeORI3s7A+JrOPF60fgjyThXppDWIFZiUcpOQmcEmoWkPH7PHuUaPug1iFAYgASBFgLhkWPtFZair6cBL5+Y9v6yeYynfCxMXKCpEfEVPCyo0HgewnPS5vBk7sr1sCojd7By+QkMINLOcyi3qi3PYPPerkd4N72vAzdG+0qnJvAOOyzCs9CobSdG7yaMEYf7eFDWyAmWI64akQrvb3x2Ee5CucmMHOQYplFPe7vYi26jOfc1Q2IAOF0CKtjJaNchfsg8M3CKnzlhJnwrXQCaBVVuWFwP91JEp5si3JXSXuEz+7h+2odxvc7CVFjOjSXv2ofBGYUeIUcnjAc30ongFZBlYeFE+cDQl9xOsD5oI3sHxz/SQxwkzYV5sp8uUlEj8XfaFL69EXgFDfDGe4nZrpeiJx7L26AAFeLD1rirXajhMwedAef33s0147EY+PvNvLexkaBlfgXbQqXXqYvAoMDHkdPSwTkVZLI5OBSJwI7SPqbFUY63Plz999V7ttku8QHuE0kjr9r4rcd1rXBEur3SeArNnGjCXXCFihF2IYzQS51IcDuC/ISLnaZPFDSmw2HRGQPEs7fYoPOo8YQS7pPAoPngSHmb+p8PVbSi1Mre73eEcA5BfLuvKLlXE73VwokhsgclK2Sezbmvu/uHRXDBvsmMF1/niR+/VKFHwHeY1zKRoDcV89d00XyG3HXm8OZf9bsdcMPyANW9OMfJD24bBjX924IAnMNwFaai/VUwUni3NTKXi8rApjB8tl7QytsdXM5MCw2zRZ9FYnpJ8ZGVcoQBAYo4v8SB7iL8OtNgiuXMhBoS1x6O0QIpVUkZkcY67teBuLG2QljB9V1K017ZK87PbZhL2+GACFreI/kTnbTijtrdMgbhWU/MiRHYzHguzoZagWeAXVyE7Po4I6oUb/rat6xC5OqjsMBFnJ8Yl+DvtGETdqnsb76zsCIQWS28LO74ydIekGLPu3aZELEagyHi5+0KJ+9yNAEZoBfaK4RMLfsIqOPfdQFnA519woPOeaMM1NGcmClypODh1pqfet6EJKUuL8t6VFLSMmVJz7KM3POHec6QFogPlh1YaAyiJRAYKxwAIF74i5C1AXerTC/dOmOAFEyuLLDO8hCzg8RWn5koawHHVxBvbRlOx+VBF7kvO5VSiAwA8Ym1uJqCPdDSDzqSISZn5CrNqaOXK90fbVZ7GYtuyR2GKe1MARZNg19nqz/f/ulEJi+8F5CulELYTV+RnO48ikLZRPSwZbyKxnGS5hh3n1/nkG3pUquOC/pqBDb7FM76mhdvSQC02nekZ7VuvfrCzIRRASx9Ck16lqxatgCEoTBWshYafXjbN23eX1nGdllY3n23ZwdnekujcD0C6eFVxgOnvcTVmO/bloPamr4o01TxYkz2RdKf/dli0/wCQt5U/C6stC1VkeJBKbDWM1YGrij82Uhc/t/ZUe1vgZwOGD1SQm6sGm0NUTC2D5cDRGI0Uo4meY8JquUSuBcJP6qJO783poV1fqU4+WF00EOuVdzX/yuHIoNdabk89rUPM/YKvPNTXVb//+SCZyLxOj1APJbPiLYJHMNYi04KnS947fu0zJ91vG3aKOX7IilE3hGYt6JYyNbrpv4IWxx+3gQU9vg5JkTaGupxc74HzPlUNqu2fFdag3qvL4aCEx/MdnjdBpXQgvxhOKXoZjr6ogWsGTi3bp0+aak62XoJFdn52TQ+0uVtRB41uEuYXlq/OHKOfcz3bkI/LVMq7o1Jl2DTKzrD4nVOHfJJrURGCCIefTCkLw5BRhPJr41ajm20BgzYNRQuvAsEenFWn7YHAxey1rpor4aCTwbA3a6RyQA5O+/W4OW4xCLO9XHJcxP31U+F5wVrNv9UHCSsNa7hb6aCcxAMDbH6DxGur7/7tLcGR4SnCY+03ixfD+m8ULL5rhGIlC7pUFODuju0OzozsyhONgd4OGUVWoncIrpX+qYfzVYdC2Gt/1Wc4IJkfngCcUveo4EXaseBIKbc1gy/+FHBt/btoIhB/mcr9C2woZyOJXgpgcmJcszJR2dqYO9pMlNfZgzjTlK7eUl/XdUDSnl/RfvFEwxY3PM4ucMkfmwSl+45LPJuH/b5n0fKyGu0GbfRMGAcHzjo7tMbicJE9IYwYPrMTEV1pQl88JrjHTlVJOShL5Nf7hTf22bgl3L1ExgQrm8MxKAmPdfnLcpnzMW9Y/nyM2P0SJZU1dEsh9gjxsrHLxcM7bSQnk8wYjWUbqkPD9txvS2xtGfcLq9SM0ExrY5Nrp+m/dfVjuIm3JA1suktWiEkK7Pb1FusYjFQ82u4acJbfddhRSmmHlaykXNucx81A5L3Ut11UxgIjzsFonQuvHiyM5W+fGROkssflzC4d5sHGzPiTEWa9hP4jACM2S99zQC2+KHarErON+QZaJXqZXARN7f9P64CCTvvxiXLx7ubBOIW21o0SVPDKsLkSK7CDsQTCHBep0wD1zpYU9ci1iuvhiscBg2yIl7rQTm4eRdK0WODZkhcCtkxX1KipLC6/AjxUl0VyG/EIYznKjyma3KrLIE5/9EMJVcDIxOZAtwJjTNxyRhqliKdF19OWFn7MQkZ/x8OMsYRGolMNEdCMHjshqBHGZ8ROvgsK3NNnnewwcSn9BjJoZ1z0Xs6ssPPSf63Be/p7EuYydXjNRKYFy1YpM7FwN6Tx3BwIV34aEEG2tWqXkngQ+EPhEPfAjByf7pLRvmB4cdxBmSOJ0vUmokMIdNRQTVLnJGL+sUWffYLg4pBAlYdg1H0rO+35nbkpeInKSyrcGLqqiolG0ftPt5RI1WUP1nphA5rRoPhbAOW7Xl5Bowu6lh6EebOGucqdAni/DGMRh1KlvjCpxy/9sJpIorE+MKIg8pJwXb8WV9eGO4tsuZaoWIIO9fk6OYfmGB1jaI+5BYbtV2jQQmncUqE8I+weUkcpYWhnxBq5JY99WnL4U0mWS54IyAbz5Dv24ctCEmFifmx4fVL0fkynX5tziM46yg9JhdK5+h2giMqeF/9MWIFe1AXCy1+J4XTBD5tYfMfGZ/r8sQnzoUyDq7wiBoOoSNcV5IbTe13lPDld26+hjmsLuCzLF3/Kv0ktMI55JlwqoMeXMmGE/Fq3W92gg85PvvKuJuAht7Zn54Zp+ZY8L8v/E3c0Ew+mUf4irN/3usE8emPvbx/9dtpefb5wcJImPL3XVFxtMII4tFIdQt5B369aIz7rUROMX/tytIqcTt2u7Y6t8gpBxpG6WS92LubHFYSd3iLmZa4C739ZJeORZwayMw/qV79gQ+Wyx+vRe3yj01P8pmCLFzSsLI2OZCZj5tr3ewGuO1gu04J8wcmMV6ryV0td8qNRGYd8w+LtRJwUKaESdunmeRwPopnlKz3mB7DKHxs+abs4BlSeywe8f77C2Szs4zlOG11kRg0l3mtOBhZTjGidvLQ3lusxrubdQSp+zM22KSbfJOX2DURrFqaiIwnjFHZUCSbRneNL7iZgB3hUrLVLKzJliFcbzoevDVHwoGLdVEYCId3NdgzDMVrOYcijlxDUGNUGW5Cs83e+0QuiiiK/UWrYnA2KcebgA170RcUzhxDcDsoCLHKkx3OOQiI8QkpCYCd005eqIk7v+cuOU82rlWYX4c8CYavdREYCYjZcLJRMhkEmjbpSwECKiAlZa1YPRCZM7Sw9p2HndtBI5ZhQlrCnHb3ht2BtMVRCNAlI9c80O6FA4nRy21EZjJgMTcI65Kh0lsIj5FRU4Y9VPUbXCYTt68m4qltTnrIIPGqKVGAjMhkBeDAMiMPSuG8FwHsU3mYt+lHgSencm5nzhcmG+OWmol8KgnZWKDY/VlFc4hhB0m3O1oxQk82qmtamDfzuRP7QSu6jHwztaKANEe727ced9CGwPq6hyBVQjkMJP1Qyx/3hyBnhA4NIOPrl8j9TR53owjQKpUYkiTGM1CuJnYN+RrttBXrA4/xCp2aibXsbZxm9sAc6Qk8h2PXpzAo5/iqgZIjiVW4y4yicOrGUBO4C6Pite1RmCHJi8zycO6CIECFpOtddFXdF0ncNHTM8nO7RTyE+8XOXqSaz+0QwC8yObKKO4ELmMevBdbI/BwSS+StN0GcAixSxI38hlPTpzAk5vyqga8V2PffueE/MRVDbJLZ53AXdDzun0jEJOfuO++DdKeE3gQ2L1RR8AGASewDY6uxREYBAEn8CCwe6OOgA0CTmAbHF2LIzAIAk7gQWD3Rh0BGwScwDY4uhZHYBAEnMCDwO6NOgI2CDiBbXB0LY7AIAg4gQeB3Rt1BGwQcALb4OhaHIFBEHACDwK7N+oI2CDgBLbB0bU4AoMg4AQeBHZv1BGwQcAJbIOja3EEBkHACTwI7N6oI2CDgBPYBkfX4ggMgoATeBDYvVFHwAYBJ7ANjq7FERgEASfwILB7o46ADQJOYBscXYsjMAgCTuBBYPdGHQEbBP4PpEqa9iTc2LkAAAAASUVORK5CYII=;" vertex="1" parent="OEQvsh9jKtCIjXLcF72v-18">
          <mxGeometry x="82" y="110" width="36" height="30" as="geometry" />
        </mxCell>
        <mxCell id="OEQvsh9jKtCIjXLcF72v-21" value="沙盒2" style="swimlane;whiteSpace=wrap;html=1;startSize=23;" vertex="1" parent="OEQvsh9jKtCIjXLcF72v-14">
          <mxGeometry x="450" y="270" width="200" height="210" as="geometry" />
        </mxCell>
        <mxCell id="OEQvsh9jKtCIjXLcF72v-22" value="新企微" style="sketch=0;outlineConnect=0;fontColor=#232F3E;gradientColor=none;strokeColor=#232F3E;fillColor=#ffffff;dashed=0;verticalLabelPosition=bottom;verticalAlign=top;align=center;html=1;fontSize=12;fontStyle=0;aspect=fixed;shape=mxgraph.aws4.resourceIcon;resIcon=mxgraph.aws4.traditional_server;" vertex="1" parent="OEQvsh9jKtCIjXLcF72v-21">
          <mxGeometry x="35" y="45" width="130" height="130" as="geometry" />
        </mxCell>
        <mxCell id="OEQvsh9jKtCIjXLcF72v-23" value="" style="shape=image;verticalLabelPosition=bottom;labelBackgroundColor=default;verticalAlign=top;aspect=fixed;imageAspect=0;image=data:image/png,iVBORw0KGgoAAAANSUhEUgAAAPAAAADICAYAAADWfGxSAAAAAXNSR0IArs4c6QAAGWxJREFUeF7tnQn4fUVZx78uuCCIIiqlIhlmCoJKgoKaC6KGGm6YmZaUGmgJLqTiUuaOG0aS4b6EuISmIuCCuCAJ7komiWuuKJjgUracT89cuf/7v8uZOe+cM3PO+z7Pfe6PPzPvzHznfO/MmXmXy8nFEXAEqkXgctX23DvuCDgCcgL7Q+AIVIyAE7jiyfOuOwJOYH8GHIGKEXACVzx53nVHwAnsz4AjUDECTuCKJ8+77gg4gf0ZcAQqRsAJXPHkedcdASewPwOOQMUIOIErnjzvuiPgBPZnwBGoGAEncMWT5113BJzA/gw4AhUj4ASuePK8646AE9ifAUegYgScwP1N3naSdgifayz5/l9JF0u6aOF79m+/6K+r3lItCDiB7WZqZ0m7zn1uuPDfV+nY1A8kfUvSt5d8f1XSpyT9T8c2vHplCDiB0yZsR0m3kbRv+Obvq6epMqsFec8Jn09L+lz4/NSsBVdUHAJO4HZT8huS9pd0a0n7SNq7XbXBS10q6TOS3ifpdEkfHbxH3gFTBJzAq+GErHeVdICkO5miPpwyyHxaIPP7h+uGt2yFgBN4SyRnhOX7llYgF6rnXwOZ3xlW6EK76d1ah4ATWNqzeVe8n6T7S7rZRB+Xc5sfrHdIenuDw+cnikGVw54qgTkRnpH24CpnLl+n3zVH5gvzNeOaLRCYGoE5fDokrLY3sgBwxDq4sjpB0svD1dWIh1rv0KZC4N0lHRY+l693ugbpuRN5ENjbNTp2Au82R9yrtoPES61AwIlc4KMxVgJff4641ywQ95q7BJFfKumFkty8c+CZHCOBHyvpCZIwbXTJhwBWXy9oTu7fnK8J17wJgTER+HbNivAUSXfbNOjM///nkr4p6Rvhe/5v7JkxbVz2oVvbhg/b/dnffO8iCdtqPrO/+e5qX20BBQSGyBDapWcExkDgK0k6OpB3iAOqC4KJImaKfPq8R8XEk5P1+c/2PT9DNMdWmi31syT9eID2J9tk7QQ+KBAXZ4K+5PzGgeHUxrzyTElnFXjFAqnB4w6Sbi+J/+5L/lnSEyV9sK8Gp95OzQR+fnjXzT2HbHs/HD6nSPpi7gaN9d84OGLs1/zgHBi24cZNbKGO1RgSsyK7ZEagRgKzoryoeedi9c0lPIRvCh+M/n+Wq6Ge9RJU4IHBmAUy55QTA5G/nrORqeuujcC/20SyeLGkX8s0cayuJwXi1rbSxkLCod+MzNeJrdyy/JcCiU9uWd6LRSJQE4GfJOnZkeNrW/zdcyvu1O42uW57aPhgsZZDnibpr3MonrrOGgh8xea97dWS/iDDZOFK9/eSMOCfumwTSPyH4fDLGg+um1jxXQwRKJ3AvLO9UdK9DceMKifuekDx0HqEpHsY435eiGryE2O9k1VXMoGvLYl3J0LZWAkHUi/xFbc1nOx6/jyQrnWlFgVvFYLwtSjqRdYhUCqBb9Csup+UtJPR9H2/sVp6bji9NlI5GTUYx0BiPpaHhzeRxCGXSwcESiQwE2t5AvxaSc+RRAgZl3QEOKnG4g0iWwk/1JiauiQiUBqB2S5/JHEsi9UI4MaptRvbGwEa1DxA0jOaU/vfNFD7HUl7SMJYxiUBgZIIvJck4hlbyGsah4G/kPQ9C2WuYysEfiWQ+E8MsDlD0r0aqzpC4LpEIlAKgQlv8y/NioljQhfBE+io4K/aRY/XbYcAV04cCpIqposQTI8YZZ5ZIhLFEgjMuxVG8KQl6SJnB/Jit+zSHwLYWP9tE9HyFh2bZNf0sI46Jld9aALj98rVzm07Iv+qJinYYyRd0lGPV09D4HrNjcFxzStQ1wifuCPi0+3SEoGhCfzWsHVq2d2lxf5S0l91UeB1zRDATv2IjtoOl3R8Rx2TqT4kgQl7g0tgFzk0mFl20eF1bRHgB/XpHVXitPJPHXVMovpQBMYThq1zl0MrTi7dhrnMx7QriUmhyvx+oszhldOrIQiMZQ/kvWMHGMhdRMY9l3IRwODj2A7d+0ATROEuHepPouoQBMa4AtfAVHm4pFekVvZ6vSJwz+A4ktookT2el1p5CvX6JnDXCeWwiu2ZSz0IkDTuLYndJUAesb2sDHwSu1FutT4JjF8v9714oqSIkzcFtTLqPF7SMYld4aYC802XJQj0SeAjO3gDOXnrf3xJlJZqeolvMvVdFhDoi8D49rL6prijEe6GrbdL3QhcPYTjTTHa+ZokLL5I6+Iyh0BfBMZ75akJyH+38U46oOdg6Qnd9CotEeDmAeeFFHErrYG20ISBxU45JckYtrHYyLqMB4HUO+IfStpH0pfHA0X3kfSxApPJ7s8SuoqB/KMT6nmV8hFgFU6xAyAe+OPKH15/PcxN4D0l4VgfK0TPwFrrwtiKXr4KBFK30iSFYxXuM/9U0YDmJnBq+pM/brLw4WHkMl4EUrfSL5P0qPHCEjeynATm5JnVl+gNMYIRO8bsLuNGgDORj0kiBlqs3NQ4blps+8WUz0ng1Htfts6k6XQZPwKHSWJFjZUnh0CFsfVGVz4ngfEkibW6YstNLCuX6SDwoYRMEB+XtO90IFo90lwE/r1ma0R2uhjhmoCwLGS2d5kOAsTCwlwyVrAPwKtt0pKLwPjpxqb/JDga226X6SFA3uXYNC5+zdiEoslBYOIjYfp2hcjn0NNtRAI2ouIpHkv/3qSC5TALj6XJSg4CP0TS6yIRJYFZjuyDkd3w4gMicGZwHYzpwoNCWtiYOqMqm4PApDIh32yM3K0xVj89poKXHR0CxJiONZslNewjR4dExICsCUy4nIslbR/RB7yUbhNR3ouOF4FzmjhnvxUxvPMlYWs/WbEmMLGqYldS9/Wd7OO31cBJQkcYnRiZ9NmJNYG5lOdyPkZYfVmFXRyBA5sg/6dFwoDdQNfwxJFNllPcmsDkN4rJWvdvkm5cDhzekwIQIKTszhH9eK8kiD9JsSTwlZvtz88iUXT3sEjAJlD8DZIeHDlOy+c4sulhi1sOHDev2K3wnRq/0A8OC4G3XhgCKXfCu0s6r7Bx9NIdSwITeOzlkb3esUlKdlFkHS8+bgRINRsbdeOQDqFrq0bTksCYtpGYqq1g87xL28JebjIIbBOsq3glayuTvcmwJPBHJO3fFnFJHm0yAqyJFSWQ+14RYyZwPKvw5MSSwNikbheBIClWjo4o70Wng0Bs2tkvNB5Ne0wHnstGakVgYv7+KBJAXA5PiqzjxaeBALcT5MAirPDs8wNJuJxi7Xfd8OG6afa31bNcFcJWgyZg+wWRI2e7fVZkHS/uCDgCcwhYERj7VexYY4R3nM/GVPCyjoAjsCUCVgTGm+jUSHB3S7guiGzCizsC40bAisC/35hE4tMbI7y/8H7j4gg4AokIWBGYzAtkYIgRXA4viangZR0BRyDPFjolSLfVj4fPqSMwWQSsSPSnzXH+8ZEoEvjdU6dEgubFHYF5BKwIfHBjOXNyJLS4HZIDycURcAQSEbAiME75pMmIEc/AEIOWl3UEliBgReBdJX0lEmHyH5EHycURcAQSEbAi8FWalCikfowRz0AYg5aXdQQyrsCoxq/3GhEoTzqWUQROXvQyBAhgR9IA7KJdjDMzxMbDerWkQ30WHIE1CGDhd9sQdphvnGYQ3A1xXyWB3numbBBktYUG1DOa8DhkXm8rHtCuLVLTLIe76ZNaDP3rko6TdEyLsqMrYkngZyb49/56ghfT6CbBB7QFAvuF0LIxvuUo+HyITklUy8mIJYHvHrYzMeCRguX1MRW87KgRSElLuwiI5TNdPNiWg71OwrsIQfCw4nJxBLaVdKkBDMc26X2OMNBThQpLAjPg2FhGbHtuXgVS3sncCLxD0r2NGplMuGJrAmMPHbuiemoVo6e2YjXcRrzSsP/EGofEoxdrAhPHiJSPMTLZkKAxII28LOS1vlLcV9LHR46brAnMRTt3czHi6UVj0BpnWezorVPMPloSscpHLdYEBiw8jGJztvo2etSP2cbBYYaLOa6lvK6xzydp+KglB4EJCXpkJGq+jY4EbETFcSvFis9avtiELb6ptdLS9OUg8F0kvS9yoL6NjgRsRMVzERiIbhluRkYE15ZDyUFgWiBcbOz10EGSThkt0j6wdQjk2ELTHjvBl4wZ+lwEfk6TK/iJkcC9rTGHI7Wky/QQyHGIBYpvl3SfMcOZi8BE2/hwAnB3Dk4RCVW9SsUI5LhGAo6LJZE1hO9RSi4CAxZ3cLeORI3s7A+JrOPF60fgjyThXppDWIFZiUcpOQmcEmoWkPH7PHuUaPug1iFAYgASBFgLhkWPtFZair6cBL5+Y9v6yeYynfCxMXKCpEfEVPCyo0HgewnPS5vBk7sr1sCojd7By+QkMINLOcyi3qi3PYPPerkd4N72vAzdG+0qnJvAOOyzCs9CobSdG7yaMEYf7eFDWyAmWI64akQrvb3x2Ee5CucmMHOQYplFPe7vYi26jOfc1Q2IAOF0CKtjJaNchfsg8M3CKnzlhJnwrXQCaBVVuWFwP91JEp5si3JXSXuEz+7h+2odxvc7CVFjOjSXv2ofBGYUeIUcnjAc30ongFZBlYeFE+cDQl9xOsD5oI3sHxz/SQxwkzYV5sp8uUlEj8XfaFL69EXgFDfDGe4nZrpeiJx7L26AAFeLD1rirXajhMwedAef33s0147EY+PvNvLexkaBlfgXbQqXXqYvAoMDHkdPSwTkVZLI5OBSJwI7SPqbFUY63Plz999V7ttku8QHuE0kjr9r4rcd1rXBEur3SeArNnGjCXXCFihF2IYzQS51IcDuC/ISLnaZPFDSmw2HRGQPEs7fYoPOo8YQS7pPAoPngSHmb+p8PVbSi1Mre73eEcA5BfLuvKLlXE73VwokhsgclK2Sezbmvu/uHRXDBvsmMF1/niR+/VKFHwHeY1zKRoDcV89d00XyG3HXm8OZf9bsdcMPyANW9OMfJD24bBjX924IAnMNwFaai/VUwUni3NTKXi8rApjB8tl7QytsdXM5MCw2zRZ9FYnpJ8ZGVcoQBAYo4v8SB7iL8OtNgiuXMhBoS1x6O0QIpVUkZkcY67teBuLG2QljB9V1K017ZK87PbZhL2+GACFreI/kTnbTijtrdMgbhWU/MiRHYzHguzoZagWeAXVyE7Po4I6oUb/rat6xC5OqjsMBFnJ8Yl+DvtGETdqnsb76zsCIQWS28LO74ydIekGLPu3aZELEagyHi5+0KJ+9yNAEZoBfaK4RMLfsIqOPfdQFnA519woPOeaMM1NGcmClypODh1pqfet6EJKUuL8t6VFLSMmVJz7KM3POHec6QFogPlh1YaAyiJRAYKxwAIF74i5C1AXerTC/dOmOAFEyuLLDO8hCzg8RWn5koawHHVxBvbRlOx+VBF7kvO5VSiAwA8Ym1uJqCPdDSDzqSISZn5CrNqaOXK90fbVZ7GYtuyR2GKe1MARZNg19nqz/f/ulEJi+8F5CulELYTV+RnO48ikLZRPSwZbyKxnGS5hh3n1/nkG3pUquOC/pqBDb7FM76mhdvSQC02nekZ7VuvfrCzIRRASx9Ck16lqxatgCEoTBWshYafXjbN23eX1nGdllY3n23ZwdnekujcD0C6eFVxgOnvcTVmO/bloPamr4o01TxYkz2RdKf/dli0/wCQt5U/C6stC1VkeJBKbDWM1YGrij82Uhc/t/ZUe1vgZwOGD1SQm6sGm0NUTC2D5cDRGI0Uo4meY8JquUSuBcJP6qJO783poV1fqU4+WF00EOuVdzX/yuHIoNdabk89rUPM/YKvPNTXVb//+SCZyLxOj1APJbPiLYJHMNYi04KnS947fu0zJ91vG3aKOX7IilE3hGYt6JYyNbrpv4IWxx+3gQU9vg5JkTaGupxc74HzPlUNqu2fFdag3qvL4aCEx/MdnjdBpXQgvxhOKXoZjr6ogWsGTi3bp0+aak62XoJFdn52TQ+0uVtRB41uEuYXlq/OHKOfcz3bkI/LVMq7o1Jl2DTKzrD4nVOHfJJrURGCCIefTCkLw5BRhPJr41ajm20BgzYNRQuvAsEenFWn7YHAxey1rpor4aCTwbA3a6RyQA5O+/W4OW4xCLO9XHJcxP31U+F5wVrNv9UHCSsNa7hb6aCcxAMDbH6DxGur7/7tLcGR4SnCY+03ixfD+m8ULL5rhGIlC7pUFODuju0OzozsyhONgd4OGUVWoncIrpX+qYfzVYdC2Gt/1Wc4IJkfngCcUveo4EXaseBIKbc1gy/+FHBt/btoIhB/mcr9C2woZyOJXgpgcmJcszJR2dqYO9pMlNfZgzjTlK7eUl/XdUDSnl/RfvFEwxY3PM4ucMkfmwSl+45LPJuH/b5n0fKyGu0GbfRMGAcHzjo7tMbicJE9IYwYPrMTEV1pQl88JrjHTlVJOShL5Nf7hTf22bgl3L1ExgQrm8MxKAmPdfnLcpnzMW9Y/nyM2P0SJZU1dEsh9gjxsrHLxcM7bSQnk8wYjWUbqkPD9txvS2xtGfcLq9SM0ExrY5Nrp+m/dfVjuIm3JA1suktWiEkK7Pb1FusYjFQ82u4acJbfddhRSmmHlaykXNucx81A5L3Ut11UxgIjzsFonQuvHiyM5W+fGROkssflzC4d5sHGzPiTEWa9hP4jACM2S99zQC2+KHarErON+QZaJXqZXARN7f9P64CCTvvxiXLx7ubBOIW21o0SVPDKsLkSK7CDsQTCHBep0wD1zpYU9ci1iuvhiscBg2yIl7rQTm4eRdK0WODZkhcCtkxX1KipLC6/AjxUl0VyG/EIYznKjyma3KrLIE5/9EMJVcDIxOZAtwJjTNxyRhqliKdF19OWFn7MQkZ/x8OMsYRGolMNEdCMHjshqBHGZ8ROvgsK3NNnnewwcSn9BjJoZ1z0Xs6ssPPSf63Be/p7EuYydXjNRKYFy1YpM7FwN6Tx3BwIV34aEEG2tWqXkngQ+EPhEPfAjByf7pLRvmB4cdxBmSOJ0vUmokMIdNRQTVLnJGL+sUWffYLg4pBAlYdg1H0rO+35nbkpeInKSyrcGLqqiolG0ftPt5RI1WUP1nphA5rRoPhbAOW7Xl5Bowu6lh6EebOGucqdAni/DGMRh1KlvjCpxy/9sJpIorE+MKIg8pJwXb8WV9eGO4tsuZaoWIIO9fk6OYfmGB1jaI+5BYbtV2jQQmncUqE8I+weUkcpYWhnxBq5JY99WnL4U0mWS54IyAbz5Dv24ctCEmFifmx4fVL0fkynX5tziM46yg9JhdK5+h2giMqeF/9MWIFe1AXCy1+J4XTBD5tYfMfGZ/r8sQnzoUyDq7wiBoOoSNcV5IbTe13lPDld26+hjmsLuCzLF3/Kv0ktMI55JlwqoMeXMmGE/Fq3W92gg85PvvKuJuAht7Zn54Zp+ZY8L8v/E3c0Ew+mUf4irN/3usE8emPvbx/9dtpefb5wcJImPL3XVFxtMII4tFIdQt5B369aIz7rUROMX/tytIqcTt2u7Y6t8gpBxpG6WS92LubHFYSd3iLmZa4C739ZJeORZwayMw/qV79gQ+Wyx+vRe3yj01P8pmCLFzSsLI2OZCZj5tr3ewGuO1gu04J8wcmMV6ryV0td8qNRGYd8w+LtRJwUKaESdunmeRwPopnlKz3mB7DKHxs+abs4BlSeywe8f77C2Szs4zlOG11kRg0l3mtOBhZTjGidvLQ3lusxrubdQSp+zM22KSbfJOX2DURrFqaiIwnjFHZUCSbRneNL7iZgB3hUrLVLKzJliFcbzoevDVHwoGLdVEYCId3NdgzDMVrOYcijlxDUGNUGW5Cs83e+0QuiiiK/UWrYnA2KcebgA170RcUzhxDcDsoCLHKkx3OOQiI8QkpCYCd005eqIk7v+cuOU82rlWYX4c8CYavdREYCYjZcLJRMhkEmjbpSwECKiAlZa1YPRCZM7Sw9p2HndtBI5ZhQlrCnHb3ht2BtMVRCNAlI9c80O6FA4nRy21EZjJgMTcI65Kh0lsIj5FRU4Y9VPUbXCYTt68m4qltTnrIIPGqKVGAjMhkBeDAMiMPSuG8FwHsU3mYt+lHgSencm5nzhcmG+OWmol8KgnZWKDY/VlFc4hhB0m3O1oxQk82qmtamDfzuRP7QSu6jHwztaKANEe727ced9CGwPq6hyBVQjkMJP1Qyx/3hyBnhA4NIOPrl8j9TR53owjQKpUYkiTGM1CuJnYN+RrttBXrA4/xCp2aibXsbZxm9sAc6Qk8h2PXpzAo5/iqgZIjiVW4y4yicOrGUBO4C6Pite1RmCHJi8zycO6CIECFpOtddFXdF0ncNHTM8nO7RTyE+8XOXqSaz+0QwC8yObKKO4ELmMevBdbI/BwSS+StN0GcAixSxI38hlPTpzAk5vyqga8V2PffueE/MRVDbJLZ53AXdDzun0jEJOfuO++DdKeE3gQ2L1RR8AGASewDY6uxREYBAEn8CCwe6OOgA0CTmAbHF2LIzAIAk7gQWD3Rh0BGwScwDY4uhZHYBAEnMCDwO6NOgI2CDiBbXB0LY7AIAg4gQeB3Rt1BGwQcALb4OhaHIFBEHACDwK7N+oI2CDgBLbB0bU4AoMg4AQeBHZv1BGwQcAJbIOja3EEBkHACTwI7N6oI2CDgBPYBkfX4ggMgoATeBDYvVFHwAYBJ7ANjq7FERgEASfwILB7o46ADQJOYBscXYsjMAgCTuBBYPdGHQEbBP4PpEqa9iTc2LkAAAAASUVORK5CYII=;" vertex="1" parent="OEQvsh9jKtCIjXLcF72v-21">
          <mxGeometry x="82" y="115" width="36" height="30" as="geometry" />
        </mxCell>
        <mxCell id="OEQvsh9jKtCIjXLcF72v-24" value="&lt;b&gt;&lt;font style=&quot;font-size: 16px;&quot;&gt;自动迁移&lt;/font&gt;&lt;/b&gt;" style="text;html=1;align=center;verticalAlign=middle;resizable=0;points=[];autosize=1;strokeColor=none;fillColor=none;rotation=-20;" vertex="1" parent="OEQvsh9jKtCIjXLcF72v-14">
          <mxGeometry y="230" width="90" height="30" as="geometry" />
        </mxCell>
        <mxCell id="OEQvsh9jKtCIjXLcF72v-25" value="" style="sketch=0;pointerEvents=1;shadow=0;dashed=0;html=1;strokeColor=none;fillColor=#505050;labelPosition=center;verticalLabelPosition=bottom;verticalAlign=top;outlineConnect=0;align=center;shape=mxgraph.office.servers.web_server;" vertex="1" parent="1">
          <mxGeometry x="210" y="80" width="48" height="57" as="geometry" />
        </mxCell>
        <mxCell id="OEQvsh9jKtCIjXLcF72v-26" value="" style="sketch=0;pointerEvents=1;shadow=0;dashed=0;html=1;strokeColor=none;fillColor=#505050;labelPosition=center;verticalLabelPosition=bottom;verticalAlign=top;outlineConnect=0;align=center;shape=mxgraph.office.devices.workstation_pc;" vertex="1" parent="1">
          <mxGeometry x="793.5" y="170" width="53" height="60" as="geometry" />
        </mxCell>
        <mxCell id="OEQvsh9jKtCIjXLcF72v-27" value="" style="shape=flexArrow;endArrow=classic;html=1;rounded=0;entryX=1;entryY=0.25;entryDx=0;entryDy=0;fillColor=#60a917;strokeColor=#2D7600;" edge="1" parent="1" target="OEQvsh9jKtCIjXLcF72v-8">
          <mxGeometry width="50" height="50" relative="1" as="geometry">
            <mxPoint x="580" y="470" as="sourcePoint" />
            <mxPoint x="440" y="410" as="targetPoint" />
          </mxGeometry>
        </mxCell>
        <mxCell id="OEQvsh9jKtCIjXLcF72v-28" style="edgeStyle=orthogonalEdgeStyle;rounded=0;orthogonalLoop=1;jettySize=auto;html=1;entryX=0.425;entryY=-0.005;entryDx=0;entryDy=0;entryPerimeter=0;" edge="1" parent="1" source="OEQvsh9jKtCIjXLcF72v-25" target="OEQvsh9jKtCIjXLcF72v-2">
          <mxGeometry relative="1" as="geometry" />
        </mxCell>
        <mxCell id="OEQvsh9jKtCIjXLcF72v-29" style="edgeStyle=orthogonalEdgeStyle;rounded=0;orthogonalLoop=1;jettySize=auto;html=1;entryX=0.55;entryY=0;entryDx=0;entryDy=0;entryPerimeter=0;" edge="1" parent="1" source="OEQvsh9jKtCIjXLcF72v-25" target="OEQvsh9jKtCIjXLcF72v-15">
          <mxGeometry relative="1" as="geometry" />
        </mxCell>
        <mxCell id="OEQvsh9jKtCIjXLcF72v-30" value="沙盒变更指令+沙盒启动配置" style="text;html=1;align=center;verticalAlign=middle;resizable=0;points=[];autosize=1;strokeColor=none;fillColor=none;" vertex="1" parent="1">
          <mxGeometry x="329" y="80" width="170" height="30" as="geometry" />
        </mxCell>
        <mxCell id="OEQvsh9jKtCIjXLcF72v-31" value="沙盒变更指令+沙盒启动配置" style="text;html=1;align=center;verticalAlign=middle;resizable=0;points=[];autosize=1;strokeColor=none;fillColor=none;" vertex="1" parent="1">
          <mxGeometry x="-40" y="80" width="170" height="30" as="geometry" />
        </mxCell>
      </root>
    </mxGraphModel>
  </diagram>
</mxfile>
